<svg width="1920" height="454" viewBox="0 0 1920 454" fill="none" xmlns="http://www.w3.org/2000/svg">
<g opacity="0.4">
<path d="M2555.58 487.486C2445.3 524.784 2309.84 507.73 2159.04 486.415C2027.24 467.784 1895.64 449.239 1764.35 429.037C1671.57 414.767 1570.83 397.118 1477.35 394.095C1228.81 386.049 1204.69 463.391 1056.42 511.199C930.123 551.925 735.043 516.066 566.85 497.41C447.491 484.164 365.421 477.889 267.673 496.098C150.26 517.97 59.8286 526.141 -86.8464 500.872" stroke="url(#paint0_linear_2_4669)" stroke-width="2" stroke-miterlimit="10"/>
<path d="M2536.75 478.643C2464.87 501.777 2382.59 503.722 2294.03 496.592C2246.44 492.813 2196.71 486.506 2145.12 479.673C2130.12 477.694 2115.15 475.7 2100.15 473.729C1985.44 458.697 1869.78 442.573 1754.16 424.782C1713.87 418.59 1672.1 411.736 1630.08 405.721C1575.75 397.947 1520.99 391.52 1468.48 389.609C1314.16 384.112 1245.17 411.137 1178.56 443.803C1138.52 463.267 1100.4 485.051 1045.99 503.039C1008.69 515.342 965.527 520.986 918.906 522.385C810.703 525.595 682.739 505.854 565.821 493.429C447.269 480.792 364.637 473.684 266.958 491.254C150.147 512.373 59.5805 521.399 -85.7158 496.494" stroke="url(#paint1_linear_2_4669)" stroke-width="2" stroke-miterlimit="10"/>
<path d="M2517.89 469.79C2445.92 491.791 2363.79 494.325 2277.05 488.127C2230.35 484.791 2181.67 479.157 2131.14 472.933C2116.44 471.137 2101.75 469.295 2087.04 467.525C1974.09 453.922 1859.07 438.243 1743.89 420.525C1703.76 414.355 1662.18 407.518 1620.37 401.514C1566.31 393.74 1511.84 387.25 1459.52 385.129C1306.58 379.173 1236.6 404.872 1168.27 436.353C1127.3 455.246 1088.9 476.766 1035.45 494.862C998.848 507.202 956.789 513.177 911.429 515.024C806.187 519.266 680.934 501.24 564.694 489.415C446.975 477.391 363.754 469.446 266.171 486.381C149.962 506.747 59.2578 516.639 -84.6346 492.101" stroke="url(#paint2_linear_2_4669)" stroke-width="2" stroke-miterlimit="10"/>
<path d="M2499.03 460.945C2426.99 481.81 2344.99 484.986 2260.07 479.66C2214.26 476.787 2166.64 471.762 2117.16 466.183C2102.76 464.56 2088.37 462.892 2073.93 461.31C1962.68 449.146 1848.37 433.906 1733.62 416.255C1693.65 410.107 1652.25 403.288 1610.64 397.282C1556.88 389.512 1502.63 382.894 1450.54 380.634C1298.92 374.051 1227.81 398.528 1157.98 428.893C1115.95 447.179 1077.38 468.469 1024.93 486.688C989.03 499.076 948.052 505.368 903.975 507.675C801.668 512.944 679.179 496.631 563.56 485.417C446.649 474.002 362.733 465.131 265.376 481.534C149.588 501.037 58.9307 511.894 -83.5833 487.72" stroke="url(#paint3_linear_2_4669)" stroke-width="2" stroke-miterlimit="10"/>
<path d="M2480.17 452.1C2408.04 471.826 2326.2 475.648 2243.11 471.208C2198.19 468.805 2151.63 464.407 2103.18 459.442C2089.08 457.992 2074.96 456.494 2060.82 455.113C1951.26 444.387 1837.65 429.581 1723.35 412.003C1683.56 405.889 1642.32 399.083 1600.93 393.07C1547.43 385.31 1493.48 378.601 1441.58 376.15C1291.35 369.063 1219.01 392.203 1147.71 421.446C1104.61 439.122 1065.91 460.189 1014.4 478.524C979.212 490.95 939.339 497.573 896.519 500.336C797.172 506.636 677.394 492.026 562.448 481.43C446.344 470.624 361.823 460.887 264.581 476.687C149.349 495.412 58.6029 507.149 -82.5353 483.347" stroke="url(#paint4_linear_2_4669)" stroke-width="2" stroke-miterlimit="10"/>
<path d="M2461.32 443.256C2389.09 461.844 2307.38 466.316 2226.14 462.743C2182.1 460.811 2136.59 457.039 2089.2 452.692C2075.4 451.424 2061.56 450.087 2047.73 448.901C1939.84 439.618 1826.98 425.244 1713.1 407.734C1673.47 401.643 1632.42 394.853 1591.22 388.839C1538 381.079 1484.31 374.285 1432.63 371.647C1283.76 364.054 1210.22 385.85 1137.43 413.978C1093.27 431.047 1054.42 451.888 1003.89 470.344C969.4 482.807 930.634 489.751 889.097 492.975C792.709 500.305 675.641 487.399 561.345 477.408C446.048 467.209 360.919 456.616 263.819 471.807C149.145 489.756 58.335 502.376 -81.4275 478.946" stroke="url(#paint5_linear_2_4669)" stroke-width="2" stroke-miterlimit="10"/>
<path d="M2442.49 434.408C2370.2 451.861 2288.59 456.979 2209.21 454.276C2166.06 452.806 2121.61 449.669 2075.27 445.939C2061.77 444.854 2048.21 443.677 2034.67 442.682C1928.43 434.848 1816.34 420.9 1702.88 403.458C1663.41 397.389 1622.55 390.616 1581.56 384.605C1528.64 376.849 1475.22 369.97 1423.72 367.149C1276.25 359.063 1201.48 379.513 1127.22 406.521C1081.98 422.981 1043.16 443.657 993.425 462.172C959.735 474.714 921.978 481.947 881.697 485.626C788.24 493.992 673.935 482.787 560.261 473.405C445.771 463.814 360.036 452.365 263.052 466.945C148.938 484.108 58.0366 497.617 -80.3481 474.55" stroke="url(#paint6_linear_2_4669)" stroke-width="2" stroke-miterlimit="10"/>
<path d="M2423.63 425.565C2351.25 441.89 2269.79 447.653 2192.23 445.821C2149.96 444.821 2106.54 442.315 2061.29 439.206C2048.08 438.294 2034.79 437.286 2021.56 436.483C1916.92 430.101 1805.62 416.571 1692.6 399.2C1653.29 393.163 1612.64 386.401 1571.82 380.393C1519.17 372.647 1466.04 365.678 1414.76 362.67C1268.67 354.091 1192.66 373.183 1116.93 399.09C1070.61 414.94 1031.69 435.397 982.903 454.029C949.942 466.613 913.307 474.206 874.238 478.306C783.85 487.783 672.144 478.198 559.141 469.433C445.484 460.454 359.145 448.14 262.275 462.126C148.718 478.514 57.7274 492.901 -79.2564 470.209" stroke="url(#paint7_linear_2_4669)" stroke-width="2" stroke-miterlimit="10"/>
<path d="M2404.78 416.722C2332.3 431.91 2250.98 438.323 2175.28 437.361C2133.87 436.835 2091.53 434.95 2047.31 432.454C2034.4 431.724 2021.39 430.886 2008.45 430.264C1905.4 425.33 1794.92 412.225 1682.33 394.923C1643.2 388.91 1602.71 382.162 1562.11 376.157C1509.75 368.414 1456.9 361.369 1405.8 358.162C1261.1 349.09 1183.82 366.822 1106.67 391.626C1059.28 406.859 1020.25 427.106 972.416 445.854C940.183 458.488 904.628 466.399 866.815 470.955C779.406 481.473 670.414 473.665 558.032 465.416C445.21 457.132 358.262 443.878 261.509 457.254C148.51 472.866 57.431 488.131 -78.1776 465.811" stroke="url(#paint8_linear_2_4669)" stroke-width="2" stroke-miterlimit="10"/>
<path d="M2385.92 407.871C2313.36 421.924 2232.16 428.995 2158.3 428.898C2117.78 428.842 2076.46 427.587 2033.33 425.701C2020.69 425.15 2007.98 424.476 1995.33 424.045C1893.86 420.586 1784.2 407.874 1672.05 390.643C1633.08 384.653 1592.78 377.922 1552.37 371.915C1500.28 364.173 1447.69 357.052 1396.82 353.659C1253.51 344.094 1174.96 360.475 1096.38 384.169C1047.89 398.789 1008.76 418.826 961.878 437.682C930.373 450.358 895.895 458.595 859.341 463.597C774.885 475.153 668.6 469.045 556.892 461.403C444.875 453.735 357.349 439.621 260.689 452.383C148.274 467.224 57.1034 483.375 -77.151 461.406" stroke="url(#paint9_linear_2_4669)" stroke-width="2" stroke-miterlimit="10"/>
<path d="M2367.07 399.03C2294.44 411.951 2213.34 419.685 2141.35 420.439C2101.71 420.861 2061.45 420.222 2019.38 418.953C2007.03 418.583 1994.59 418.078 1982.24 417.839C1882.32 415.849 1773.52 403.538 1661.8 386.376C1622.99 380.417 1582.87 373.702 1542.65 367.685C1490.84 359.943 1438.54 352.742 1387.85 349.157C1245.96 339.113 1166.11 354.123 1086.12 376.715C1036.53 390.723 997.33 410.546 951.392 429.519C920.591 442.233 887.241 450.803 851.941 456.26C770.466 468.848 666.884 464.448 555.801 457.405C444.613 450.357 356.486 435.38 259.944 447.531C148.11 461.611 56.8277 478.627 -76.0264 457.032" stroke="url(#paint10_linear_2_4669)" stroke-width="2" stroke-miterlimit="10"/>
<path d="M2348.22 390.188C2275.5 401.984 2194.5 410.363 2124.38 411.976C2085.59 412.873 2046.41 412.862 2005.39 412.208C1993.35 412.02 1981.18 411.685 1969.13 411.627C1870.73 411.121 1762.82 399.196 1651.52 382.101C1612.87 376.165 1572.94 369.467 1532.93 363.461C1481.42 355.732 1429.39 348.446 1378.89 344.663C1238.38 334.145 1157.22 347.771 1075.84 369.267C1025.12 382.66 985.845 402.267 940.854 421.357C910.779 434.122 878.508 443.009 844.463 448.921C765.939 462.545 665.091 459.839 554.656 453.399C444.275 446.956 355.567 431.139 259.146 442.671C147.897 455.981 56.4997 473.87 -74.9799 452.646" stroke="url(#paint11_linear_2_4669)" stroke-width="2" stroke-miterlimit="10"/>
<path d="M2329.39 381.343C2256.58 392.005 2175.71 401.05 2107.43 403.518C2069.52 404.893 2031.37 405.503 1991.41 405.455C1979.66 405.44 1967.77 405.292 1956.04 405.41C1859.18 406.409 1752.11 394.844 1641.26 377.822C1602.79 371.911 1563.03 365.226 1523.21 359.218C1471.97 351.49 1420.23 344.133 1369.93 340.159C1230.8 329.159 1148.35 341.406 1065.55 361.811C1013.74 374.583 974.388 393.985 930.344 413.192C900.973 425.995 869.804 435.211 837.016 441.569C761.47 456.225 663.298 455.221 553.512 449.384C443.96 443.56 354.676 426.884 258.322 437.809C147.654 450.358 56.1453 469.11 -73.9575 448.249" stroke="url(#paint12_linear_2_4669)" stroke-width="2" stroke-miterlimit="10"/>
<path d="M2310.54 372.502C2237.64 382.031 2156.9 391.751 2090.48 395.059C2053.43 396.908 2016.33 398.142 1977.45 398.704C1965.98 398.867 1954.35 398.888 1942.95 399.192C1847.6 401.709 1741.44 390.493 1631.01 373.529C1592.7 367.649 1553.12 360.973 1513.52 354.967C1462.58 347.243 1411.11 339.81 1360.99 335.638C1223.28 324.169 1139.47 335.026 1055.33 354.343C1002.39 366.501 962.963 385.688 919.868 405.002C891.226 417.847 861.133 427.39 829.599 434.202C757.005 449.884 661.561 450.582 552.396 445.351C443.65 440.133 353.787 422.617 257.554 432.924C147.495 444.718 55.848 464.329 -72.8553 443.843" stroke="url(#paint13_linear_2_4669)" stroke-width="2" stroke-miterlimit="10"/>
<path d="M2291.69 363.662C2218.73 372.063 2138.08 382.454 2073.51 386.607C2037.33 388.934 2001.29 390.791 1963.47 391.959C1952.29 392.304 1940.94 392.503 1929.83 392.979C1835.99 397.023 1730.73 386.148 1620.73 369.252C1582.57 363.394 1543.18 356.734 1503.78 350.727C1453.1 343.013 1401.92 335.499 1352.03 331.131C1215.72 319.202 1130.58 328.657 1045.07 346.891C990.987 358.422 951.511 377.408 909.388 396.842C881.445 409.734 852.457 419.597 822.175 426.864C752.533 443.573 659.788 445.975 551.301 441.341C443.358 436.738 352.946 418.368 256.807 428.063C147.356 439.101 55.5975 459.574 -71.7548 439.446" stroke="url(#paint14_linear_2_4669)" stroke-width="2" stroke-miterlimit="10"/>
<path d="M2272.84 354.823C2199.79 362.092 2119.26 373.157 2056.56 378.15C2021.24 380.959 1986.24 383.431 1949.51 385.208C1938.63 385.734 1927.55 386.111 1916.74 386.759C1824.43 392.351 1720.02 381.79 1610.47 364.966C1572.47 359.13 1533.27 352.487 1494.08 346.492C1443.68 338.778 1392.79 331.192 1343.08 326.635C1208.18 314.247 1121.68 322.296 1034.81 339.448C979.61 350.356 940.084 369.14 898.907 388.691C871.667 401.622 843.779 411.814 814.777 419.538C748.109 437.277 658.066 441.374 550.2 437.347C443.088 433.353 352.098 414.143 256.031 423.214C147.188 433.497 55.2901 454.837 -70.6606 435.075" stroke="url(#paint15_linear_2_4669)" stroke-width="2" stroke-miterlimit="10"/>
<path d="M2253.99 345.975C2180.88 352.126 2100.45 363.87 2039.61 369.693C2005.17 372.988 1971.23 376.074 1935.55 378.465C1924.96 379.173 1914.15 379.728 1903.64 380.558C1812.88 387.708 1709.33 377.453 1600.2 360.697C1562.39 354.896 1523.38 348.261 1484.35 342.26C1434.25 334.551 1383.65 326.903 1334.11 322.134C1200.62 309.287 1112.74 315.918 1024.56 332.005C968.208 342.287 928.631 360.87 888.401 380.538C861.889 393.51 835.079 404.018 807.329 412.197C743.611 430.962 656.268 436.753 549.073 433.34C442.767 429.95 351.225 409.906 255.255 418.356C147.02 427.884 54.9856 450.082 -69.5915 430.691" stroke="url(#paint16_linear_2_4669)" stroke-width="2" stroke-miterlimit="10"/>
<path d="M2235.17 337.14C2161.94 342.158 2081.66 354.587 2022.67 361.236C1989.1 365.017 1956.19 368.723 1921.57 371.71C1911.25 372.595 1900.74 373.331 1890.52 374.333C1801.33 383.064 1698.6 373.09 1589.94 356.408C1552.29 350.629 1513.46 344.02 1474.66 338.013C1424.82 330.313 1374.52 322.584 1325.17 317.617C1193.09 304.32 1103.83 309.526 1014.3 324.554C956.812 334.2 917.184 352.591 877.924 372.38C852.115 385.39 826.405 396.228 799.907 404.86C739.137 424.65 654.519 432.139 547.947 429.323C442.472 426.542 350.376 405.672 254.479 413.498C146.85 422.281 54.6809 445.327 -68.5205 426.297" stroke="url(#paint17_linear_2_4669)" stroke-width="2" stroke-miterlimit="10"/>
<path d="M2216.32 328.301C2143.01 332.189 2062.84 345.3 2005.69 352.776C1973 357.051 1941.14 361.37 1907.58 364.953C1897.56 366.02 1887.32 366.942 1877.4 368.108C1789.78 378.435 1687.89 368.727 1579.66 352.114C1542.16 346.357 1503.52 339.765 1464.91 333.756C1415.34 326.056 1365.33 318.265 1316.18 313.1C1185.5 299.354 1094.87 303.135 1004.02 317.098C945.39 326.119 905.715 344.3 867.398 364.215C842.292 377.263 817.684 388.421 792.435 397.516C734.615 418.322 652.692 427.513 546.792 425.31C442.122 423.132 349.475 401.428 253.65 408.632C146.654 416.674 54.3248 440.564 -67.478 421.908" stroke="url(#paint18_linear_2_4669)" stroke-width="2" stroke-miterlimit="10"/>
<path d="M2197.47 319.454C2124.1 322.216 2044.08 336.031 1988.75 344.319C1956.93 349.089 1926.13 354.012 1893.62 358.199C1883.9 359.456 1873.95 360.551 1864.33 361.888C1778.35 373.832 1677.23 364.37 1569.42 347.825C1532.08 342.099 1493.63 335.514 1455.23 329.517C1405.96 321.822 1356.21 313.964 1307.26 308.592C1178.01 294.4 1085.96 296.741 993.823 309.653C934.023 318.037 894.321 336.029 856.976 356.064C832.571 369.151 809.063 380.637 785.068 390.177C730.168 412.004 650.993 422.894 545.714 421.297C441.852 419.715 348.674 397.198 252.926 403.77C146.534 411.077 54.0981 435.809 -66.3571 417.52" stroke="url(#paint19_linear_2_4669)" stroke-width="2" stroke-miterlimit="10"/>
<path d="M2178.63 310.617C2105.17 312.261 2025.29 326.759 1971.78 335.86C1940.84 341.125 1911.09 346.661 1879.64 351.443C1870.21 352.881 1860.53 354.162 1851.21 355.663C1766.86 369.24 1666.49 360.002 1559.13 343.529C1521.97 337.828 1483.68 331.257 1445.48 325.258C1396.49 317.564 1347.02 309.644 1298.26 304.064C1170.42 289.433 1076.97 290.32 983.523 302.188C922.56 309.924 882.804 327.734 846.429 347.89C822.726 361.015 800.317 372.83 777.599 382.826C725.643 405.678 649.164 418.259 544.559 417.266C441.528 416.291 347.798 392.95 252.125 398.89C146.365 405.457 53.77 431.033 -65.2848 413.108" stroke="url(#paint20_linear_2_4669)" stroke-width="2" stroke-miterlimit="10"/>
</g>
<defs>
<linearGradient id="paint0_linear_2_4669" x1="2507.34" y1="674.473" x2="36.1024" y2="29.5708" gradientUnits="userSpaceOnUse">
<stop stop-color="#F18B39"/>
<stop offset="1" stop-color="#DD5D4B"/>
</linearGradient>
<linearGradient id="paint1_linear_2_4669" x1="2488.25" y1="666.396" x2="36.9731" y2="26.2977" gradientUnits="userSpaceOnUse">
<stop stop-color="#F18B39"/>
<stop offset="0.7497" stop-color="#DD5D4B"/>
</linearGradient>
<linearGradient id="paint2_linear_2_4669" x1="2469.15" y1="658.322" x2="37.8393" y2="23.0356" gradientUnits="userSpaceOnUse">
<stop stop-color="#F18B39"/>
<stop offset="0.7497" stop-color="#DD5D4B"/>
</linearGradient>
<linearGradient id="paint3_linear_2_4669" x1="2450.06" y1="650.248" x2="38.7023" y2="19.7816" gradientUnits="userSpaceOnUse">
<stop stop-color="#F18B39"/>
<stop offset="0.7497" stop-color="#DD5D4B"/>
</linearGradient>
<linearGradient id="paint4_linear_2_4669" x1="2430.96" y1="642.177" x2="39.5614" y2="16.5374" gradientUnits="userSpaceOnUse">
<stop stop-color="#F18B39"/>
<stop offset="0.7497" stop-color="#DD5D4B"/>
</linearGradient>
<linearGradient id="paint5_linear_2_4669" x1="2411.87" y1="634.109" x2="40.4155" y2="13.305" gradientUnits="userSpaceOnUse">
<stop stop-color="#F18B39"/>
<stop offset="0.7497" stop-color="#DD5D4B"/>
</linearGradient>
<linearGradient id="paint6_linear_2_4669" x1="2392.77" y1="626.042" x2="41.2661" y2="10.0815" gradientUnits="userSpaceOnUse">
<stop stop-color="#F18B39"/>
<stop offset="0.7497" stop-color="#DD5D4B"/>
</linearGradient>
<linearGradient id="paint7_linear_2_4669" x1="2373.68" y1="617.977" x2="42.1154" y2="6.86412" gradientUnits="userSpaceOnUse">
<stop stop-color="#F18B39"/>
<stop offset="0.7497" stop-color="#DD5D4B"/>
</linearGradient>
<linearGradient id="paint8_linear_2_4669" x1="2354.58" y1="609.913" x2="42.958" y2="3.65909" gradientUnits="userSpaceOnUse">
<stop stop-color="#F18B39"/>
<stop offset="0.7497" stop-color="#DD5D4B"/>
</linearGradient>
<linearGradient id="paint9_linear_2_4669" x1="2335.49" y1="601.85" x2="43.7959" y2="0.464254" gradientUnits="userSpaceOnUse">
<stop stop-color="#F18B39"/>
<stop offset="0.7497" stop-color="#DD5D4B"/>
</linearGradient>
<linearGradient id="paint10_linear_2_4669" x1="2316.39" y1="593.79" x2="44.6324" y2="-2.72311" gradientUnits="userSpaceOnUse">
<stop stop-color="#F18B39"/>
<stop offset="0.7497" stop-color="#DD5D4B"/>
</linearGradient>
<linearGradient id="paint11_linear_2_4669" x1="2297.29" y1="585.73" x2="45.4634" y2="-5.90149" gradientUnits="userSpaceOnUse">
<stop stop-color="#F18B39"/>
<stop offset="1" stop-color="#DD5D4B"/>
</linearGradient>
<linearGradient id="paint12_linear_2_4669" x1="2278.19" y1="577.672" x2="46.2893" y2="-9.06856" gradientUnits="userSpaceOnUse">
<stop stop-color="#F18B39"/>
<stop offset="0.984375" stop-color="#DD5D4B"/>
</linearGradient>
<linearGradient id="paint13_linear_2_4669" x1="2259.1" y1="569.614" x2="47.1105" y2="-12.228" gradientUnits="userSpaceOnUse">
<stop stop-color="#F18B39"/>
<stop offset="1" stop-color="#DD5D4B"/>
</linearGradient>
<linearGradient id="paint14_linear_2_4669" x1="2240" y1="561.559" x2="47.929" y2="-15.3771" gradientUnits="userSpaceOnUse">
<stop stop-color="#F18B39"/>
<stop offset="1" stop-color="#DD5D4B"/>
</linearGradient>
<linearGradient id="paint15_linear_2_4669" x1="2220.9" y1="553.504" x2="48.7459" y2="-18.5195" gradientUnits="userSpaceOnUse">
<stop stop-color="#F18B39"/>
<stop offset="1" stop-color="#DD5D4B"/>
</linearGradient>
<linearGradient id="paint16_linear_2_4669" x1="2201.8" y1="545.45" x2="49.5573" y2="-21.6523" gradientUnits="userSpaceOnUse">
<stop stop-color="#F18B39"/>
<stop offset="1" stop-color="#DD5D4B"/>
</linearGradient>
<linearGradient id="paint17_linear_2_4669" x1="2182.7" y1="537.397" x2="50.3637" y2="-24.7751" gradientUnits="userSpaceOnUse">
<stop stop-color="#F18B39"/>
<stop offset="1" stop-color="#DD5D4B"/>
</linearGradient>
<linearGradient id="paint18_linear_2_4669" x1="2163.6" y1="529.344" x2="51.1665" y2="-27.8902" gradientUnits="userSpaceOnUse">
<stop stop-color="#F18B39"/>
<stop offset="1" stop-color="#DD5D4B"/>
</linearGradient>
<linearGradient id="paint19_linear_2_4669" x1="2144.5" y1="521.291" x2="51.9659" y2="-30.9975" gradientUnits="userSpaceOnUse">
<stop stop-color="#F18B39"/>
<stop offset="1" stop-color="#DD5D4B"/>
</linearGradient>
<linearGradient id="paint20_linear_2_4669" x1="2125.4" y1="513.242" x2="52.7587" y2="-34.0927" gradientUnits="userSpaceOnUse">
<stop stop-color="#CAE4F1"/>
<stop offset="0.0001" stop-color="#F18B39"/>
<stop offset="1" stop-color="#DD5D4B"/>
</linearGradient>
</defs>
</svg>
