<svg width="1006" height="713" viewBox="0 0 1006 713" fill="none" xmlns="http://www.w3.org/2000/svg">
<path d="M1355.97 284.604C1299.61 353.74 1230.06 350.463 1152.64 343.545C1084.96 337.497 1017.39 331.538 949.966 323.208C902.32 317.33 850.577 307.925 802.631 317.933C675.144 344.53 663.157 456.714 587.36 546.388C522.8 622.775 422.592 602.202 336.256 601.666C274.988 601.276 232.874 604.981 182.841 645.428C122.741 694.011 76.4106 719.259 1.07602 706.165" stroke="url(#paint0_linear_2_5435)" stroke-width="2" stroke-miterlimit="10"/>
<path d="M1346.55 274.765C1309.81 318.191 1267.62 333.468 1222.17 336.967C1197.74 338.921 1172.21 337.654 1145.72 335.932C1138.01 335.441 1130.33 334.925 1122.63 334.448C1063.72 330.844 1004.33 325.853 944.945 318.518C924.255 315.971 902.798 312.723 881.219 310.69C853.318 308.065 825.202 307.396 798.263 312.721C719.093 328.54 683.849 376.987 649.853 432.987C629.413 466.41 609.973 502.793 582.159 536.334C563.089 559.288 540.981 573.791 517.079 582.865C461.604 603.87 395.882 595.679 335.861 596.072C275 596.416 232.588 599.041 182.582 638.595C122.781 686.045 76.38 712.525 1.7432 699.73" stroke="url(#paint1_linear_2_5435)" stroke-width="2" stroke-miterlimit="10"/>
<path d="M1337.13 264.914C1300.33 306.78 1258.21 322.867 1213.7 327.398C1189.73 329.841 1164.73 329.359 1138.78 328.331C1131.23 328.051 1123.69 327.707 1116.14 327.466C1058.13 325.616 999.06 321.141 939.897 313.839C919.285 311.299 897.921 308.046 876.449 305.996C848.683 303.33 820.71 302.53 793.866 307.534C715.391 322.506 679.626 369.259 644.739 423.876C623.817 456.65 604.235 492.717 576.907 526.275C558.197 549.183 536.654 563.986 513.398 573.5C459.44 595.51 395.108 589.314 335.428 590.448C274.989 591.529 232.265 593.072 182.299 631.733C122.797 678.051 76.3246 705.776 2.39857 693.282" stroke="url(#paint2_linear_2_5435)" stroke-width="2" stroke-miterlimit="10"/>
<path d="M1327.71 255.075C1290.86 295.37 1248.81 312.345 1205.23 317.829C1181.71 320.786 1157.26 320.998 1131.85 320.717C1124.45 320.635 1117.06 320.489 1109.65 320.472C1052.53 320.373 993.804 316.416 934.85 309.146C914.316 306.613 893.044 303.356 871.667 301.274C844.05 298.569 816.189 297.555 789.457 302.332C711.645 316.23 675.292 361.456 639.627 414.752C618.16 446.844 598.497 482.628 571.667 516.217C553.316 539.091 532.328 554.182 509.729 564.149C457.275 587.163 394.359 582.95 334.993 584.851C274.963 586.666 231.871 587.017 182.013 624.911C122.716 669.969 76.2668 699.052 3.03849 686.858" stroke="url(#paint3_linear_2_5435)" stroke-width="2" stroke-miterlimit="10"/>
<path d="M1318.29 245.237C1281.38 283.958 1239.41 301.824 1196.77 308.274C1173.71 311.759 1149.79 312.691 1124.91 313.116C1117.67 313.232 1110.42 313.283 1103.16 313.503C1046.9 315.167 988.534 311.717 929.8 304.48C909.357 301.968 888.165 298.704 866.897 296.58C839.414 293.847 811.7 292.662 785.06 297.144C707.948 310.131 670.955 353.679 634.527 405.642C612.502 437.052 592.759 472.552 566.426 506.173C548.435 529 528.013 544.391 506.058 554.811C455.122 578.83 393.596 576.599 334.57 579.267C274.948 581.817 231.535 581.046 181.727 618.088C122.705 661.986 76.2089 692.329 3.67717 680.447" stroke="url(#paint4_linear_2_5435)" stroke-width="2" stroke-miterlimit="10"/>
<path d="M1308.88 235.399C1271.92 272.548 1230.01 291.315 1188.31 298.706C1165.7 302.719 1142.33 304.371 1117.99 305.503C1110.9 305.831 1103.8 306.065 1096.7 306.511C1041.29 309.95 983.305 306.995 924.779 299.79C904.415 297.285 883.315 294.016 862.142 291.861C834.794 289.088 807.213 287.743 780.678 291.932C704.254 304.005 666.635 345.863 629.429 396.506C606.859 427.235 587.036 462.451 561.201 496.103C543.57 518.883 523.714 534.562 502.418 545.436C452.998 570.46 392.863 570.211 334.164 573.633C274.951 576.917 231.216 575.037 181.472 611.216C122.725 653.953 76.1949 685.558 4.35975 673.988" stroke="url(#paint5_linear_2_5435)" stroke-width="2" stroke-miterlimit="10"/>
<path d="M1299.46 225.548C1262.45 261.125 1220.6 280.793 1179.85 289.125C1157.7 293.653 1134.87 296.038 1111.07 297.877C1104.14 298.416 1097.17 298.834 1090.22 299.504C1035.66 304.731 978.064 302.259 919.746 295.085C899.46 292.588 878.453 289.314 857.388 287.129C830.188 284.316 802.74 282.812 776.297 286.719C700.572 297.893 662.313 338.061 624.344 387.371C601.216 417.418 581.399 452.411 555.976 486.034C538.753 508.811 519.414 524.747 498.762 536.074C450.846 562.115 392.128 563.836 333.744 568.024C274.939 572.042 230.881 569.054 181.188 604.367C122.717 645.93 76.1394 678.808 5.00192 667.538" stroke="url(#paint6_linear_2_5435)" stroke-width="2" stroke-miterlimit="10"/>
<path d="M1290.04 215.709C1252.97 249.727 1211.2 270.284 1171.38 279.569C1149.68 284.624 1127.38 287.742 1104.14 290.289C1097.35 291.026 1090.53 291.641 1083.73 292.536C1029.99 299.562 972.794 297.56 914.697 290.419C894.488 287.941 873.588 284.651 852.604 282.447C825.538 279.607 798.236 277.944 771.899 281.544C696.873 291.819 657.963 330.283 619.228 378.286C595.542 407.651 575.672 442.363 550.733 476.015C533.883 498.747 515.12 515.024 495.09 526.762C448.748 553.905 391.363 557.511 333.318 562.466C274.935 567.221 230.556 563.11 180.912 597.585C122.716 637.987 76.0911 672.126 5.66325 661.169" stroke="url(#paint7_linear_2_5435)" stroke-width="2" stroke-miterlimit="10"/>
<path d="M1280.62 205.871C1243.5 238.316 1201.78 259.774 1162.92 270.001C1141.66 275.596 1119.92 279.422 1097.21 282.675C1090.57 283.624 1083.89 284.436 1077.24 285.541C1024.32 294.366 967.539 292.836 909.649 285.727C889.532 283.257 868.711 279.961 847.835 277.727C820.918 274.847 793.749 273.025 767.504 276.331C693.178 285.707 653.604 322.464 614.13 369.15C589.887 397.82 569.962 432.263 545.507 465.946C529.029 488.645 510.82 505.209 491.435 517.399C446.622 545.562 390.631 551.254 332.898 556.844C274.94 562.453 230.236 557.115 180.642 590.725C122.721 629.966 76.0498 665.365 6.3185 654.721" stroke="url(#paint8_linear_2_5435)" stroke-width="2" stroke-miterlimit="10"/>
<path d="M1271.2 196.019C1234.02 226.892 1192.37 249.265 1154.45 260.432C1133.64 266.555 1112.43 271.113 1090.27 275.061C1083.78 276.22 1077.25 277.217 1070.76 278.546C1018.64 289.209 962.27 288.11 904.602 281.034C884.563 278.571 863.835 275.27 843.054 273.005C816.273 270.085 789.234 268.117 763.095 271.129C689.467 279.619 649.229 314.67 609.018 360.026C584.203 388.012 564.223 422.187 540.255 455.887C524.149 478.54 506.493 495.403 487.753 508.034C444.457 537.214 389.857 544.888 332.465 551.233C274.913 557.59 229.901 551.131 180.345 583.875C122.712 621.956 75.993 658.629 6.94749 648.27" stroke="url(#paint9_linear_2_5435)" stroke-width="2" stroke-miterlimit="10"/>
<path d="M1261.79 186.181C1224.57 215.483 1182.95 238.781 1146.01 250.865C1125.65 257.529 1104.98 262.794 1083.37 267.449C1077.03 268.819 1070.64 270.013 1064.29 271.567C1012.96 284.065 957.04 283.401 899.58 276.357C879.618 273.914 858.983 270.608 838.298 268.299C811.652 265.338 784.759 263.212 758.712 265.929C685.784 273.52 644.868 306.865 603.919 350.903C578.533 378.206 558.512 412.1 535.028 445.831C519.283 468.437 502.206 485.602 484.11 498.685C442.344 528.872 389.133 538.541 332.056 545.638C274.925 552.743 229.591 545.162 180.087 577.042C122.74 613.976 75.9625 651.895 7.62656 641.85" stroke="url(#paint10_linear_2_5435)" stroke-width="2" stroke-miterlimit="10"/>
<path d="M1252.37 176.343C1215.09 204.085 1173.54 228.285 1137.54 241.296C1117.62 248.5 1097.5 254.486 1076.43 259.849C1070.24 261.43 1063.99 262.821 1057.8 264.586C1007.27 278.946 951.784 278.69 894.532 271.678C874.648 269.242 854.106 265.931 833.528 263.605C807.029 260.618 780.269 258.332 754.315 260.742C682.097 267.461 640.493 299.071 598.819 341.793C572.849 368.412 552.787 402.026 529.788 435.786C514.414 458.36 497.891 475.812 480.44 489.348C440.189 520.552 388.383 532.191 331.634 540.042C274.911 547.882 229.268 539.206 179.815 570.207C122.757 605.982 75.9189 645.16 8.2796 635.428" stroke="url(#paint11_linear_2_5435)" stroke-width="2" stroke-miterlimit="10"/>
<path d="M1242.94 166.504C1205.61 192.674 1164.12 217.801 1129.06 231.739C1109.6 239.484 1090.01 246.19 1069.48 252.246C1063.45 254.025 1057.34 255.64 1051.31 257.604C1001.57 273.853 946.515 273.978 889.483 266.998C869.691 264.571 849.228 261.254 828.745 258.897C802.382 255.869 775.767 253.438 749.905 255.553C678.385 261.386 636.106 291.263 593.692 332.68C567.152 358.603 547.048 391.95 524.534 425.74C509.52 448.267 493.562 466.02 476.757 479.996C438.037 512.206 387.607 525.838 331.186 534.443C274.884 543.032 228.932 533.235 179.502 563.382C122.731 598.011 75.8349 638.435 8.89326 629.002" stroke="url(#paint12_linear_2_5435)" stroke-width="2" stroke-miterlimit="10"/>
<path d="M1233.52 156.653C1196.13 181.25 1154.71 207.317 1120.61 222.158C1101.58 230.443 1082.53 237.869 1062.56 244.62C1056.67 246.61 1050.7 248.421 1044.84 250.598C995.876 268.76 941.274 269.242 884.451 262.281C864.737 259.874 844.368 256.539 823.993 254.152C797.777 251.085 771.294 248.507 745.526 250.314C674.716 255.276 631.723 283.416 588.61 323.519C561.485 348.757 541.34 381.824 519.312 415.632C504.671 438.113 489.266 456.165 473.106 470.594C435.903 503.809 386.876 519.424 330.768 528.794C274.875 538.118 228.612 527.227 179.235 556.496C122.764 589.979 75.7959 631.648 9.56392 622.528" stroke="url(#paint13_linear_2_5435)" stroke-width="2" stroke-miterlimit="10"/>
<path d="M1224.1 146.814C1186.66 169.84 1145.29 196.847 1112.13 212.602C1093.56 221.428 1075.05 229.574 1055.63 237.019C1049.89 239.22 1044.06 241.241 1038.35 243.616C990.163 263.705 936.017 264.531 879.403 257.601C859.767 255.201 839.49 251.861 819.21 249.443C793.129 246.349 766.792 243.613 741.13 245.114C671.029 249.216 627.338 275.595 583.51 314.396C555.79 338.936 535.616 371.737 514.085 405.575C499.803 428.022 484.966 446.363 469.449 461.244C433.764 495.464 386.127 513.074 330.361 523.186C274.875 533.257 228.317 521.246 178.978 549.65C122.806 581.987 75.7797 624.902 10.2323 616.081" stroke="url(#paint14_linear_2_5435)" stroke-width="2" stroke-miterlimit="10"/>
<path d="M1214.68 136.976C1177.19 158.428 1135.87 186.376 1103.68 203.034C1085.54 212.413 1067.58 221.266 1048.71 229.407C1043.12 231.818 1037.43 234.049 1031.88 236.622C984.475 258.665 930.762 259.806 874.369 252.91C854.811 250.517 834.627 247.172 814.454 244.737C788.508 241.602 762.316 238.721 736.746 239.927C667.354 243.171 622.951 267.787 578.41 305.286C550.106 329.128 529.904 361.663 508.858 395.532C494.935 417.932 480.664 436.573 465.805 451.908C431.65 487.135 385.403 506.726 329.95 517.604C274.886 528.411 228.018 515.305 178.705 542.828C122.833 574.02 75.7336 618.193 10.897 609.673" stroke="url(#paint15_linear_2_5435)" stroke-width="2" stroke-miterlimit="10"/>
<path d="M1205.27 127.125C1167.72 147.019 1126.46 175.907 1095.22 193.466C1077.54 203.399 1060.11 212.959 1041.79 221.807C1036.35 224.43 1030.8 226.871 1025.4 229.655C978.797 253.666 925.518 255.11 869.333 248.245C849.865 245.873 829.775 242.51 809.684 240.043C783.886 236.869 757.837 233.856 732.349 234.74C663.666 237.125 618.539 259.964 573.31 296.177C544.41 319.32 524.178 351.588 503.617 385.487C490.067 407.842 476.35 426.77 462.136 442.558C429.497 478.789 384.641 500.361 329.528 512.007C274.873 523.549 227.707 509.35 178.433 535.994C122.861 566.04 75.69 611.458 11.5499 603.25" stroke="url(#paint16_linear_2_5435)" stroke-width="2" stroke-miterlimit="10"/>
<path d="M1195.85 117.287C1158.24 135.607 1117.04 165.463 1086.76 183.898C1069.53 194.385 1052.63 204.664 1034.86 214.193C1029.56 217.026 1024.16 219.678 1018.91 222.66C973.119 248.667 920.25 250.384 864.298 243.553C844.909 241.189 824.911 237.834 804.929 235.324C779.265 232.122 753.362 228.951 727.967 229.527C659.993 231.066 614.143 252.115 568.211 287.053C538.716 309.485 518.454 341.501 498.391 375.431C485.201 397.738 472.049 416.967 458.479 433.208C427.358 470.444 383.906 493.999 329.108 506.398C274.874 518.675 227.409 503.396 178.161 529.16C122.888 558.073 75.6464 604.723 12.2041 596.815" stroke="url(#paint17_linear_2_5435)" stroke-width="2" stroke-miterlimit="10"/>
<path d="M1186.43 107.448C1148.78 124.197 1107.64 155.006 1078.29 174.329C1061.51 185.382 1045.16 196.369 1027.92 206.579C1022.78 209.623 1017.51 212.498 1012.42 215.666C967.438 243.694 914.995 245.66 859.251 238.861C839.941 236.503 820.035 233.144 800.148 230.603C774.62 227.36 748.86 224.057 723.558 224.325C656.291 225.019 609.719 244.278 563.099 277.929C533.007 299.662 512.718 331.399 493.138 365.372C480.308 387.633 467.723 407.149 454.797 423.856C425.194 462.084 383.131 487.634 328.673 500.8C274.847 513.812 227.085 497.439 177.863 522.323C122.902 550.105 75.5767 597.986 12.844 590.391" stroke="url(#paint18_linear_2_5435)" stroke-width="2" stroke-miterlimit="10"/>
<path d="M1177.01 97.5964C1139.3 112.773 1098.23 144.563 1069.83 164.761C1053.5 176.382 1037.69 188.062 1021 198.966C1016.01 202.234 1010.9 205.308 1005.96 208.673C961.821 238.74 909.766 240.938 854.23 234.171C834.997 231.833 815.185 228.456 795.404 225.898C770.025 222.616 744.396 219.179 719.189 219.127C652.643 218.976 605.323 236.429 558.026 268.809C527.326 289.828 507.02 321.313 487.938 355.318C475.468 377.532 463.449 397.349 451.168 414.495C423.07 453.727 382.423 481.261 328.278 495.193C274.862 508.927 226.814 491.488 177.619 515.478C122.955 542.141 75.5734 591.241 13.5242 583.958" stroke="url(#paint19_linear_2_5435)" stroke-width="2" stroke-miterlimit="10"/>
<path d="M1167.59 87.7578C1129.82 101.375 1088.82 134.12 1061.36 155.192C1045.48 167.379 1030.21 179.767 1014.07 191.352C1009.23 194.831 1004.26 198.128 999.473 201.679C956.176 233.81 904.498 236.213 849.183 229.478C830.041 227.149 810.308 223.765 790.623 221.176C765.379 217.854 739.894 214.285 714.781 213.912C648.942 212.929 600.889 228.551 552.902 259.67C521.595 279.964 501.258 311.209 482.673 345.245C470.563 367.412 459.11 387.53 447.487 405.13C420.906 445.367 381.649 474.882 327.845 489.569C274.851 504.039 226.504 485.519 177.336 508.616C122.985 534.148 75.5191 584.479 14.1807 577.496" stroke="url(#paint20_linear_2_5435)" stroke-width="2" stroke-miterlimit="10"/>
<path d="M1158.18 77.9204C1120.37 89.9662 1079.44 123.692 1052.9 145.637C1037.48 158.393 1022.75 171.486 1007.13 183.764C1002.44 187.455 997.624 190.976 992.983 194.71C950.555 228.908 899.24 231.514 844.134 224.812C825.07 222.489 805.43 219.101 785.853 216.482C760.756 213.133 735.415 209.42 710.396 208.738C645.262 206.936 596.478 220.728 547.813 250.574C515.899 270.155 495.546 301.135 477.457 335.216C465.706 357.349 454.821 377.742 443.841 395.808C418.778 437.037 380.924 468.547 327.434 484C274.848 499.205 226.216 479.605 177.061 501.821C123.02 526.234 75.472 577.783 14.8301 571.113" stroke="url(#paint21_linear_2_5435)" stroke-width="2" stroke-miterlimit="10"/>
<path d="M1148.76 68.0818C1110.89 78.5549 1070.05 113.263 1044.44 136.069C1029.49 149.393 1015.28 163.205 1000.21 176.151C995.676 180.053 991.007 183.798 986.508 187.717C944.973 224.009 893.985 226.79 839.099 220.12C820.113 217.818 800.567 214.412 781.085 211.762C756.123 208.372 730.925 204.54 706.001 203.525C641.586 200.904 592.046 212.837 542.702 241.437C510.181 260.292 489.809 291.033 472.219 325.145C460.827 347.231 450.508 367.925 440.173 386.444C416.614 428.676 380.165 462.157 327 478.389C274.824 494.315 225.904 473.663 176.777 494.972C123.06 518.269 75.4153 571.047 15.4711 564.676" stroke="url(#paint22_linear_2_5435)" stroke-width="2" stroke-miterlimit="10"/>
<path d="M1139.34 58.2302C1101.41 67.1308 1060.65 102.834 1035.97 126.486C1021.48 140.379 1007.8 154.897 993.281 168.524C988.896 172.637 984.379 176.607 980.02 180.722C939.404 219.112 888.73 222.066 834.052 215.428C815.144 213.133 795.69 209.734 776.316 207.055C751.489 203.625 726.433 199.673 701.605 198.324C637.896 194.883 587.612 204.959 537.603 232.314C504.476 250.43 484.072 280.944 466.979 315.088C455.947 337.127 446.183 358.107 436.505 377.08C414.451 420.303 379.404 455.779 326.58 472.767C274.813 489.428 225.606 467.709 176.494 488.111C123.087 510.302 75.3609 564.285 16.1275 558.215" stroke="url(#paint23_linear_2_5435)" stroke-width="2" stroke-miterlimit="10"/>
<path d="M1129.92 48.3916C1091.93 55.7196 1051.28 92.4077 1027.52 116.931C1013.48 131.405 1000.35 146.618 986.36 160.924C982.126 165.261 977.761 169.442 973.544 173.742C933.873 214.232 883.487 217.356 829.017 210.75C810.187 208.461 790.825 205.058 771.546 202.348C746.867 198.891 721.943 194.793 697.208 193.136C634.203 188.889 583.178 197.094 532.503 223.204C498.77 240.581 478.335 270.855 461.753 305.031C451.081 327.023 441.882 348.305 432.848 367.73C412.3 411.944 378.657 449.403 326.158 467.171C274.801 484.553 225.306 461.781 176.223 481.276C123.138 502.363 75.3304 557.551 16.7805 551.792" stroke="url(#paint24_linear_2_5435)" stroke-width="2" stroke-miterlimit="10"/>
<path d="M1120.5 38.5532C1082.46 44.3228 1041.9 81.9931 1019.04 107.362C1005.49 122.419 992.871 138.323 979.414 153.309C975.332 157.858 971.119 162.263 967.043 166.746C928.329 209.35 878.205 212.629 823.957 206.056C805.219 203.776 785.949 200.368 766.752 197.625C742.208 194.128 717.426 189.911 692.788 187.92C630.486 182.867 578.721 189.187 527.365 214.065C493.014 230.701 472.572 260.751 456.475 294.957C446.164 316.89 437.518 338.47 429.141 358.363C410.097 403.581 377.858 443.009 325.698 461.558C274.764 479.663 224.98 455.851 175.913 474.425C123.137 494.408 75.2487 550.8 17.3965 545.34" stroke="url(#paint25_linear_2_5435)" stroke-width="2" stroke-miterlimit="10"/>
<path d="M1111.07 28.7014C1072.99 32.8984 1032.53 71.5663 1010.59 97.7941C997.507 113.42 985.418 130.043 972.492 145.709C968.563 150.469 964.514 155.099 960.58 159.767C922.849 204.487 872.975 207.92 818.936 201.366C800.275 199.106 781.099 195.68 762.01 192.907C737.615 189.37 712.974 185.048 688.419 182.709C626.821 176.862 574.316 181.285 522.292 204.944C487.335 220.841 466.863 250.651 451.275 284.903C441.311 306.787 433.243 328.67 425.525 349.003C407.987 395.212 377.151 436.623 325.318 455.939C274.78 474.764 224.733 449.914 175.668 467.58C123.214 486.471 75.2324 544.054 18.0898 538.908" stroke="url(#paint26_linear_2_5435)" stroke-width="2" stroke-miterlimit="10"/>
<path d="M1101.67 18.864C1063.52 21.4884 1023.19 61.142 1002.13 88.2261C989.524 104.434 977.966 121.751 965.572 138.096C961.794 143.08 957.91 147.923 954.105 152.773C917.384 199.612 867.72 203.196 813.902 196.675C795.319 194.421 776.236 190.991 757.242 188.187C732.982 184.61 708.483 180.168 684.036 177.509C623.141 170.869 569.898 173.382 517.206 195.822C481.632 210.966 461.138 240.564 446.049 274.846C436.444 296.684 428.931 318.853 421.869 339.653C405.835 386.866 376.373 430.152 324.909 450.343C274.75 469.795 224.445 444 175.409 460.747C123.277 478.547 75.2018 537.32 18.7558 532.487" stroke="url(#paint27_linear_2_5435)" stroke-width="2" stroke-miterlimit="10"/>
<path d="M1092.24 9.02563C1054.04 10.0774 1013.83 50.7298 993.67 78.6713C981.553 95.4633 970.513 113.471 958.651 130.497C955.025 135.692 951.306 140.76 947.629 145.793C911.943 194.753 862.477 198.486 808.866 191.997C790.362 189.75 771.372 186.315 752.485 183.494C728.359 179.889 704.003 175.329 679.652 172.323C619.459 164.903 565.481 165.48 512.106 186.712C475.927 201.104 455.401 230.475 440.821 264.803C431.563 286.593 424.578 309.046 418.212 330.317C403.579 378.498 375.623 423.802 324.486 444.76C274.735 464.947 224.154 438.113 175.136 453.926C123.325 470.635 75.1689 530.613 19.4218 526.066" stroke="url(#paint28_linear_2_5435)" stroke-width="2" stroke-miterlimit="10"/>
<path d="M1082.82 -0.826172C1044.58 -1.33275 1004.48 40.3042 985.201 69.0888C973.572 86.4514 963.049 105.164 951.719 122.869C948.259 128.277 944.69 133.57 941.141 138.798C906.505 189.867 857.222 193.762 803.819 187.304C785.405 185.079 766.496 181.624 747.704 178.773C723.726 175.128 699.498 170.461 675.245 167.108C615.754 158.907 561.039 157.548 506.995 177.575C470.199 191.2 449.639 220.37 435.583 254.732C426.685 276.475 420.265 299.229 414.543 320.953C401.428 370.138 374.863 417.424 324.053 439.136C274.711 460.057 223.854 432.185 174.841 447.063C123.35 462.694 75.1015 523.849 20.051 519.615" stroke="url(#paint29_linear_2_5435)" stroke-width="2" stroke-miterlimit="10"/>
<path d="M1073.4 -10.6646C1035.1 -12.7437 995.132 29.8801 976.73 59.5198C965.589 77.4661 955.596 96.8716 944.771 115.268C941.464 120.886 938.059 126.404 934.639 131.815C901.079 184.996 851.94 189.049 798.758 182.624C780.422 180.406 761.604 176.959 742.921 174.064C719.079 170.38 694.992 165.606 670.834 161.919C612.044 152.951 556.608 149.644 501.869 168.463C464.456 181.322 443.811 210.26 430.316 244.685C421.727 266.363 415.924 289.437 410.848 311.6C399.237 361.789 374.088 411.059 323.605 433.538C274.671 455.193 223.537 426.295 174.542 440.239C123.371 454.793 75.0306 517.125 20.6766 513.203" stroke="url(#paint30_linear_2_5435)" stroke-width="2" stroke-miterlimit="10"/>
<path d="M1063.98 -20.5031C1025.62 -24.1549 985.803 19.457 968.271 49.9649C957.631 68.4959 948.18 88.6216 937.85 107.668C934.707 113.512 931.456 119.228 928.162 124.835C895.68 180.114 846.696 184.339 793.722 177.945C775.466 175.734 756.74 172.283 738.152 169.357C714.457 165.646 690.487 160.751 666.439 156.719C608.336 146.982 552.18 141.714 496.769 159.34C458.754 171.433 438.087 200.173 425.089 234.629C416.86 256.26 411.623 279.634 407.205 302.251C397.11 353.459 373.352 404.697 323.196 427.942C274.684 450.334 223.26 420.409 174.283 433.406C123.431 446.895 75.0001 510.391 21.3568 506.77" stroke="url(#paint31_linear_2_5435)" stroke-width="2" stroke-miterlimit="10"/>
<path d="M1054.57 -30.3405C1016.17 -35.5637 976.473 9.03389 959.813 40.3969C949.663 59.4985 940.716 80.3148 930.93 100.055C927.939 106.11 924.866 112.053 921.701 117.843C890.321 175.223 841.467 179.617 788.701 173.255C770.522 171.064 751.89 167.595 733.409 164.652C709.85 160.901 686.016 155.939 662.069 151.52C604.633 141.106 547.759 133.692 491.696 150.219C453.057 161.48 432.39 190.074 419.876 224.574C412.018 246.172 407.337 269.82 403.561 292.903C394.984 345.115 372.617 398.335 322.802 422.335C274.698 445.462 223.002 414.59 174.025 426.56C123.499 439.064 74.9706 503.645 22.0239 500.336" stroke="url(#paint32_linear_2_5435)" stroke-width="2" stroke-miterlimit="10"/>
<path d="M1045.15 -40.1922C1006.69 -46.9881 967.157 -1.40128 951.355 30.8287C938.757 56.5349 928.185 85.3727 915.213 110.848C874.532 190.791 800.432 171.55 728.641 159.932C649.513 147.131 567.238 119.428 486.597 141.096C422.881 158.217 408.037 222.33 399.906 283.54C392.833 336.756 371.881 391.972 322.381 416.726C274.686 440.587 222.705 408.635 173.755 419.712C123.527 431.084 74.9413 496.898 22.6781 493.9" stroke="url(#paint33_linear_2_5435)" stroke-width="2" stroke-miterlimit="10"/>
<defs>
<linearGradient id="paint0_linear_2_5435" x1="1332.14" y1="554.293" x2="25.0538" y2="437.494" gradientUnits="userSpaceOnUse">
<stop stop-color="#F18B39"/>
<stop offset="0.4468" stop-color="#F18B39" stop-opacity="0.17"/>
<stop offset="0.7497" stop-color="#DD5D4B"/>
<stop offset="1" stop-color="#F18B39" stop-opacity="0"/>
</linearGradient>
<linearGradient id="paint1_linear_2_5435" x1="1322.61" y1="545.651" x2="25.8242" y2="429.772" gradientUnits="userSpaceOnUse">
<stop stop-color="#F18B39"/>
<stop offset="0.4468" stop-color="#F18B39" stop-opacity="0.17"/>
<stop offset="0.7497" stop-color="#DD5D4B"/>
<stop offset="1" stop-color="#F18B39" stop-opacity="0"/>
</linearGradient>
<linearGradient id="paint2_linear_2_5435" x1="1313.08" y1="537.012" x2="26.5947" y2="422.054" gradientUnits="userSpaceOnUse">
<stop stop-color="#F18B39"/>
<stop offset="0.4468" stop-color="#F18B39" stop-opacity="0.17"/>
<stop offset="0.7497" stop-color="#DD5D4B"/>
<stop offset="1" stop-color="#F18B39" stop-opacity="0"/>
</linearGradient>
<linearGradient id="paint3_linear_2_5435" x1="1303.55" y1="528.375" x2="27.3649" y2="414.337" gradientUnits="userSpaceOnUse">
<stop stop-color="#F18B39"/>
<stop offset="0.4468" stop-color="#F18B39" stop-opacity="0.17"/>
<stop offset="0.7497" stop-color="#DD5D4B"/>
<stop offset="1" stop-color="#F18B39" stop-opacity="0"/>
</linearGradient>
<linearGradient id="paint4_linear_2_5435" x1="1294.02" y1="519.742" x2="28.1348" y2="406.624" gradientUnits="userSpaceOnUse">
<stop stop-color="#F18B39"/>
<stop offset="0.4468" stop-color="#F18B39" stop-opacity="0.17"/>
<stop offset="0.7497" stop-color="#DD5D4B"/>
<stop offset="1" stop-color="#F18B39" stop-opacity="0"/>
</linearGradient>
<linearGradient id="paint5_linear_2_5435" x1="1284.49" y1="511.111" x2="28.9045" y2="398.914" gradientUnits="userSpaceOnUse">
<stop stop-color="#F18B39"/>
<stop offset="0.4468" stop-color="#F18B39" stop-opacity="0.17"/>
<stop offset="0.7497" stop-color="#DD5D4B"/>
<stop offset="1" stop-color="#F18B39" stop-opacity="0"/>
</linearGradient>
<linearGradient id="paint6_linear_2_5435" x1="1274.96" y1="502.483" x2="29.674" y2="391.206" gradientUnits="userSpaceOnUse">
<stop stop-color="#F18B39"/>
<stop offset="0.4468" stop-color="#F18B39" stop-opacity="0.17"/>
<stop offset="0.7497" stop-color="#DD5D4B"/>
<stop offset="1" stop-color="#F18B39" stop-opacity="0"/>
</linearGradient>
<linearGradient id="paint7_linear_2_5435" x1="1265.43" y1="493.856" x2="30.4431" y2="383.5" gradientUnits="userSpaceOnUse">
<stop stop-color="#F18B39"/>
<stop offset="0.4468" stop-color="#F18B39" stop-opacity="0.17"/>
<stop offset="0.7497" stop-color="#DD5D4B"/>
<stop offset="1" stop-color="#F18B39" stop-opacity="0"/>
</linearGradient>
<linearGradient id="paint8_linear_2_5435" x1="1255.89" y1="485.232" x2="31.2123" y2="375.797" gradientUnits="userSpaceOnUse">
<stop stop-color="#F18B39"/>
<stop offset="0.4468" stop-color="#F18B39" stop-opacity="0.17"/>
<stop offset="0.7497" stop-color="#DD5D4B"/>
<stop offset="1" stop-color="#F18B39" stop-opacity="0"/>
</linearGradient>
<linearGradient id="paint9_linear_2_5435" x1="1246.36" y1="476.61" x2="31.9812" y2="368.095" gradientUnits="userSpaceOnUse">
<stop stop-color="#F18B39"/>
<stop offset="0.4468" stop-color="#F18B39" stop-opacity="0.17"/>
<stop offset="0.7497" stop-color="#DD5D4B"/>
<stop offset="1" stop-color="#F18B39" stop-opacity="0"/>
</linearGradient>
<linearGradient id="paint10_linear_2_5435" x1="1236.83" y1="467.99" x2="32.75" y2="360.395" gradientUnits="userSpaceOnUse">
<stop stop-color="#F18B39"/>
<stop offset="0.4468" stop-color="#F18B39" stop-opacity="0.17"/>
<stop offset="0.7497" stop-color="#DD5D4B"/>
<stop offset="1" stop-color="#F18B39" stop-opacity="0"/>
</linearGradient>
<linearGradient id="paint11_linear_2_5435" x1="1227.29" y1="459.371" x2="33.5187" y2="352.698" gradientUnits="userSpaceOnUse">
<stop stop-color="#F18B39"/>
<stop offset="0.4468" stop-color="#F18B39" stop-opacity="0.17"/>
<stop offset="0.7497" stop-color="#DD5D4B"/>
<stop offset="1" stop-color="#F18B39" stop-opacity="0"/>
</linearGradient>
<linearGradient id="paint12_linear_2_5435" x1="1217.76" y1="450.754" x2="34.2873" y2="345.001" gradientUnits="userSpaceOnUse">
<stop stop-color="#F18B39"/>
<stop offset="0.4468" stop-color="#F18B39" stop-opacity="0.17"/>
<stop offset="0.7497" stop-color="#DD5D4B"/>
<stop offset="1" stop-color="#F18B39" stop-opacity="0"/>
</linearGradient>
<linearGradient id="paint13_linear_2_5435" x1="1208.22" y1="442.139" x2="35.0556" y2="337.307" gradientUnits="userSpaceOnUse">
<stop stop-color="#F18B39"/>
<stop offset="0.4468" stop-color="#F18B39" stop-opacity="0.17"/>
<stop offset="0.7497" stop-color="#DD5D4B"/>
<stop offset="1" stop-color="#F18B39" stop-opacity="0"/>
</linearGradient>
<linearGradient id="paint14_linear_2_5435" x1="1198.68" y1="433.525" x2="35.824" y2="329.614" gradientUnits="userSpaceOnUse">
<stop stop-color="#F18B39"/>
<stop offset="0.4468" stop-color="#F18B39" stop-opacity="0.17"/>
<stop offset="0.7497" stop-color="#DD5D4B"/>
<stop offset="1" stop-color="#F18B39" stop-opacity="0"/>
</linearGradient>
<linearGradient id="paint15_linear_2_5435" x1="1189.15" y1="424.912" x2="36.5921" y2="321.922" gradientUnits="userSpaceOnUse">
<stop stop-color="#F18B39"/>
<stop offset="0.4468" stop-color="#F18B39" stop-opacity="0.17"/>
<stop offset="0.7497" stop-color="#DD5D4B"/>
<stop offset="1" stop-color="#F18B39" stop-opacity="0"/>
</linearGradient>
<linearGradient id="paint16_linear_2_5435" x1="1179.61" y1="416.301" x2="37.3602" y2="314.232" gradientUnits="userSpaceOnUse">
<stop stop-color="#F18B39"/>
<stop offset="0.4468" stop-color="#F18B39" stop-opacity="0.17"/>
<stop offset="0.7497" stop-color="#DD5D4B"/>
<stop offset="1" stop-color="#F18B39" stop-opacity="0"/>
</linearGradient>
<linearGradient id="paint17_linear_2_5435" x1="1170.07" y1="407.691" x2="38.1284" y2="306.542" gradientUnits="userSpaceOnUse">
<stop stop-color="#F18B39"/>
<stop offset="0.4468" stop-color="#F18B39" stop-opacity="0.17"/>
<stop offset="0.7497" stop-color="#DD5D4B"/>
<stop offset="1" stop-color="#F18B39" stop-opacity="0"/>
</linearGradient>
<linearGradient id="paint18_linear_2_5435" x1="1160.53" y1="399.082" x2="38.8964" y2="298.855" gradientUnits="userSpaceOnUse">
<stop stop-color="#F18B39"/>
<stop offset="0.4468" stop-color="#F18B39" stop-opacity="0.17"/>
<stop offset="0.7497" stop-color="#DD5D4B"/>
<stop offset="1" stop-color="#F18B39" stop-opacity="0"/>
</linearGradient>
<linearGradient id="paint19_linear_2_5435" x1="1150.99" y1="390.474" x2="39.6641" y2="291.168" gradientUnits="userSpaceOnUse">
<stop stop-color="#F18B39"/>
<stop offset="0.4468" stop-color="#F18B39" stop-opacity="0.17"/>
<stop offset="0.7497" stop-color="#DD5D4B"/>
<stop offset="1" stop-color="#F18B39" stop-opacity="0"/>
</linearGradient>
<linearGradient id="paint20_linear_2_5435" x1="1141.45" y1="381.868" x2="40.4319" y2="283.483" gradientUnits="userSpaceOnUse">
<stop stop-color="#F18B39"/>
<stop offset="0.4468" stop-color="#F18B39" stop-opacity="0.17"/>
<stop offset="0.7497" stop-color="#DD5D4B"/>
<stop offset="1" stop-color="#F18B39" stop-opacity="0"/>
</linearGradient>
<linearGradient id="paint21_linear_2_5435" x1="1131.91" y1="373.262" x2="41.1996" y2="275.798" gradientUnits="userSpaceOnUse">
<stop stop-color="#F18B39"/>
<stop offset="0.4468" stop-color="#F18B39" stop-opacity="0.17"/>
<stop offset="0.7497" stop-color="#DD5D4B"/>
<stop offset="1" stop-color="#F18B39" stop-opacity="0"/>
</linearGradient>
<linearGradient id="paint22_linear_2_5435" x1="1122.37" y1="364.658" x2="41.9671" y2="268.115" gradientUnits="userSpaceOnUse">
<stop stop-color="#F18B39"/>
<stop offset="0.4468" stop-color="#F18B39" stop-opacity="0.17"/>
<stop offset="0.7497" stop-color="#DD5D4B"/>
<stop offset="1" stop-color="#F18B39" stop-opacity="0"/>
</linearGradient>
<linearGradient id="paint23_linear_2_5435" x1="1112.83" y1="356.055" x2="42.7348" y2="260.433" gradientUnits="userSpaceOnUse">
<stop stop-color="#F18B39"/>
<stop offset="0.4468" stop-color="#F18B39" stop-opacity="0.17"/>
<stop offset="0.7497" stop-color="#DD5D4B"/>
<stop offset="1" stop-color="#F18B39" stop-opacity="0"/>
</linearGradient>
<linearGradient id="paint24_linear_2_5435" x1="1103.29" y1="347.452" x2="43.5023" y2="252.752" gradientUnits="userSpaceOnUse">
<stop stop-color="#F18B39"/>
<stop offset="0.4468" stop-color="#F18B39" stop-opacity="0.17"/>
<stop offset="0.7497" stop-color="#DD5D4B"/>
<stop offset="1" stop-color="#F18B39" stop-opacity="0"/>
</linearGradient>
<linearGradient id="paint25_linear_2_5435" x1="1093.74" y1="338.851" x2="44.2698" y2="245.072" gradientUnits="userSpaceOnUse">
<stop stop-color="#F18B39"/>
<stop offset="0.4468" stop-color="#F18B39" stop-opacity="0.17"/>
<stop offset="0.7497" stop-color="#DD5D4B"/>
<stop offset="1" stop-color="#F18B39" stop-opacity="0"/>
</linearGradient>
<linearGradient id="paint26_linear_2_5435" x1="1084.2" y1="330.25" x2="45.0372" y2="237.392" gradientUnits="userSpaceOnUse">
<stop stop-color="#F18B39"/>
<stop offset="0.4468" stop-color="#F18B39" stop-opacity="0.17"/>
<stop offset="0.7497" stop-color="#DD5D4B"/>
<stop offset="1" stop-color="#F18B39" stop-opacity="0"/>
</linearGradient>
<linearGradient id="paint27_linear_2_5435" x1="1074.66" y1="321.651" x2="45.8021" y2="229.714" gradientUnits="userSpaceOnUse">
<stop stop-color="#F18B39"/>
<stop offset="0.4468" stop-color="#F18B39" stop-opacity="0.17"/>
<stop offset="0.7497" stop-color="#DD5D4B"/>
<stop offset="1" stop-color="#F18B39" stop-opacity="0"/>
</linearGradient>
<linearGradient id="paint28_linear_2_5435" x1="1065.11" y1="313.052" x2="46.5667" y2="222.036" gradientUnits="userSpaceOnUse">
<stop stop-color="#F18B39"/>
<stop offset="0.4468" stop-color="#F18B39" stop-opacity="0.17"/>
<stop offset="0.7497" stop-color="#DD5D4B"/>
<stop offset="1" stop-color="#F18B39" stop-opacity="0"/>
</linearGradient>
<linearGradient id="paint29_linear_2_5435" x1="1055.57" y1="304.452" x2="47.3312" y2="214.358" gradientUnits="userSpaceOnUse">
<stop stop-color="#F18B39"/>
<stop offset="0.4468" stop-color="#F18B39" stop-opacity="0.17"/>
<stop offset="0.7497" stop-color="#DD5D4B"/>
<stop offset="1" stop-color="#F18B39" stop-opacity="0"/>
</linearGradient>
<linearGradient id="paint30_linear_2_5435" x1="1046.03" y1="295.854" x2="48.0954" y2="206.68" gradientUnits="userSpaceOnUse">
<stop stop-color="#F18B39"/>
<stop offset="0.4468" stop-color="#F18B39" stop-opacity="0.17"/>
<stop offset="0.7497" stop-color="#DD5D4B"/>
<stop offset="1" stop-color="#F18B39" stop-opacity="0"/>
</linearGradient>
<linearGradient id="paint31_linear_2_5435" x1="1036.49" y1="287.255" x2="48.8598" y2="199.002" gradientUnits="userSpaceOnUse">
<stop stop-color="#F18B39"/>
<stop offset="0.4468" stop-color="#F18B39" stop-opacity="0.17"/>
<stop offset="0.7497" stop-color="#DD5D4B"/>
<stop offset="1" stop-color="#F18B39" stop-opacity="0"/>
</linearGradient>
<linearGradient id="paint32_linear_2_5435" x1="1026.97" y1="278.635" x2="49.6262" y2="191.301" gradientUnits="userSpaceOnUse">
<stop stop-color="#F18B39"/>
<stop offset="0.4468" stop-color="#F18B39" stop-opacity="0.17"/>
<stop offset="0.7497" stop-color="#DD5D4B"/>
<stop offset="1" stop-color="#F18B39" stop-opacity="0"/>
</linearGradient>
<linearGradient id="paint33_linear_2_5435" x1="1017.46" y1="269.982" x2="50.3956" y2="183.567" gradientUnits="userSpaceOnUse">
<stop stop-color="#F18B39"/>
<stop offset="0.4468" stop-color="#F18B39" stop-opacity="0.17"/>
<stop offset="0.7497" stop-color="#DD5D4B"/>
<stop offset="1" stop-color="#F18B39" stop-opacity="0"/>
</linearGradient>
</defs>
</svg>
