<svg width="47" height="48" viewBox="0 0 47 48" fill="none" xmlns="http://www.w3.org/2000/svg">
<path d="M15.0701 46.0798H4.43671C3.91773 46.0798 3.49658 46.5094 3.49658 47.04C3.49658 47.5705 3.91722 48.0001 4.43671 48.0001H15.0701C15.589 48.0001 16.0102 47.5705 16.0102 47.04C16.0097 46.5094 15.589 46.0798 15.0701 46.0798Z" fill="url(#paint0_radial_2_4778)"/>
<path d="M46.0596 29.6994H28.4349C27.9159 29.6994 27.4948 30.1289 27.4948 30.6595V36.1847C26.5356 36.19 25.4817 36.1952 24.4396 36.1989L24.4401 23.3996H36.2452C40.1252 23.3996 43.2812 20.1765 43.2812 16.2139C43.2812 12.3975 40.3522 9.26692 36.6695 9.04186C36.203 3.97671 32.0156 0 26.936 0C23.6332 0 20.5714 1.70413 18.771 4.49522C18.1645 4.33327 17.5466 4.25177 16.9252 4.25177C13.3995 4.25177 10.3834 6.84565 9.70633 10.3033C6.36749 10.5305 3.71851 13.3772 3.71851 16.8439C3.71851 20.4588 6.59815 23.3997 10.1377 23.3997H22.5602V36.2048C21.3168 36.2074 20.2201 36.2074 19.505 36.2027V30.6595C19.505 30.129 19.0843 29.6994 18.5649 29.6994H0.940128C0.421153 29.6994 0 30.129 0 30.6595V43.6191C0 44.1497 0.420638 44.5793 0.940128 44.5793H18.5649C19.0838 44.5793 19.505 44.1497 19.505 43.6191V38.1113C20.0322 38.1249 20.7458 38.1307 21.7421 38.1307C23.0884 38.1307 24.9424 38.1202 27.495 38.1044V43.6186C27.495 44.1492 27.9157 44.5787 28.4351 44.5787H46.0599C46.5789 44.5787 47 44.1492 47 43.6186L46.9995 30.6596C46.9995 30.129 46.5789 29.6994 46.0594 29.6994L46.0596 29.6994ZM5.59867 16.8438C5.59867 14.2873 7.6349 12.2082 10.1377 12.2082C10.2206 12.2082 10.302 12.2145 10.4626 12.2261C10.9718 12.2382 11.4207 11.8659 11.4604 11.3411C11.6776 8.44236 14.0784 6.17193 16.9251 6.17193C17.5789 6.17193 18.2302 6.29497 18.861 6.53737C19.3007 6.70878 19.7908 6.52054 20.0158 6.10252C21.4065 3.52236 24.0585 1.92026 26.936 1.92026C31.2901 1.92026 34.8329 5.53784 34.8313 10.0135C34.8313 10.2807 34.9404 10.5357 35.1325 10.7176C35.325 10.8995 35.583 10.9942 35.843 10.9705C35.9758 10.96 36.1092 10.949 36.2451 10.949C39.0881 10.949 41.4014 13.3104 41.4014 16.2139C41.4014 19.1173 39.0881 21.4798 36.2451 21.4798L10.1388 21.4793C7.63614 21.4793 5.59938 19.4003 5.59938 16.8437L5.59867 16.8438ZM17.6252 42.6588H1.87998V31.6189H17.6252V42.6588ZM45.1207 42.6588H29.3754V31.6189L45.1207 31.6194V42.6588Z" fill="url(#paint1_radial_2_4778)"/>
<path d="M42.5642 46.0798H31.9308C31.4119 46.0798 30.9907 46.5094 30.9907 47.04C30.9907 47.5705 31.4119 48.0001 31.9308 48.0001H42.5642C43.0832 48.0001 43.5043 47.5705 43.5043 47.04C43.5038 46.5094 43.0832 46.0798 42.5642 46.0798Z" fill="url(#paint2_radial_2_4778)"/>
<defs>
<radialGradient id="paint0_radial_2_4778" cx="0" cy="0" r="1" gradientUnits="userSpaceOnUse" gradientTransform="translate(4.89897 46.6923) rotate(5.76679) scale(12.6857 2.76164)">
<stop stop-color="#F18B39"/>
<stop offset="1" stop-color="#DD5D4B"/>
</radialGradient>
<radialGradient id="paint1_radial_2_4778" cx="0" cy="0" r="1" gradientUnits="userSpaceOnUse" gradientTransform="translate(5.26724 14.2192) rotate(31.9734) scale(55.8829 54.6626)">
<stop stop-color="#F18B39"/>
<stop offset="1" stop-color="#DD5D4B"/>
</radialGradient>
<radialGradient id="paint2_radial_2_4778" cx="0" cy="0" r="1" gradientUnits="userSpaceOnUse" gradientTransform="translate(32.3931 46.6923) rotate(5.76679) scale(12.6857 2.76164)">
<stop stop-color="#F18B39"/>
<stop offset="1" stop-color="#DD5D4B"/>
</radialGradient>
</defs>
</svg>
