<svg width="46" height="46" viewBox="0 0 46 46" fill="none" xmlns="http://www.w3.org/2000/svg">
<path d="M45.0807 26.996H44.2548C44.5471 25.5312 44.7003 24.0341 44.7003 22.5262C44.7003 16.1291 42.0281 10.3597 37.7645 6.25491C37.7433 6.22647 37.7343 6.19245 37.7096 6.16553C37.6537 6.10611 37.5846 6.07106 37.5186 6.02942C33.5292 2.3006 28.208 0 22.3509 0C16.493 0 11.1708 2.30113 7.1806 6.03098C7.1161 6.07212 7.04758 6.10614 6.99265 6.16505C6.96846 6.19095 6.95989 6.22447 6.93873 6.25189C2.67376 10.3564 0 16.1269 0 22.5245C0 28.9231 2.67376 34.6936 6.93873 38.7984C6.95939 38.8263 6.96796 38.8593 6.99214 38.8847C7.04354 38.9396 7.10804 38.969 7.16801 39.0086C11.159 42.745 16.4861 45.0503 22.3499 45.0503C23.969 45.0503 25.5749 44.868 27.142 44.5226V45.0726C27.142 45.5846 27.5537 46 28.0621 46H45.0784C45.5868 46 45.9985 45.5846 45.9985 45.0726L46 27.9224C46 27.4105 45.5883 26.9951 45.0799 26.9951L45.0807 26.996ZM32.912 26.996C33.0218 25.8314 33.0894 24.6496 33.112 23.4536H42.8319C42.7794 24.6501 42.6242 25.8349 42.3703 26.996H32.912ZM23.2719 13.5564C25.6126 13.4599 27.8937 13.0053 30.0519 12.207C30.7715 15.0114 31.2094 18.2116 31.2784 21.5989H23.272L23.2719 13.5564ZM23.2719 11.7016V1.97081C25.813 2.60311 28.0691 5.82547 29.5394 10.4247C27.5465 11.1759 25.4366 11.6045 23.2719 11.7015V11.7016ZM21.4316 1.97081V11.7016C19.2663 11.6046 17.1559 11.176 15.163 10.4248C16.6338 5.82557 18.8899 2.60316 21.4316 1.9709V1.97081ZM21.4316 13.5563V21.5988H13.4241C13.4931 18.2108 13.931 15.0107 14.6506 12.2068C16.8093 13.0047 19.091 13.4597 21.4315 13.5563H21.4316ZM21.4316 23.4531V31.4951C19.0905 31.5911 16.8088 32.0467 14.6506 32.8445C13.931 30.0406 13.4931 26.84 13.4241 23.4526L21.4316 23.4531ZM27.1438 39.8518C26.2504 41.1885 24.9317 42.6543 23.2717 43.0722V33.3379C24.5813 33.3964 25.8769 33.5807 27.1438 33.8865V39.8518ZM21.4316 33.35V43.0808C18.8899 42.449 16.6335 39.2266 15.163 34.6273C17.1559 33.8757 19.2663 33.447 21.4316 33.35V33.35ZM28.0639 26.9956C27.5555 26.9956 27.1438 27.4105 27.1438 27.923V31.9803C25.874 31.7005 24.5784 31.5369 23.2718 31.4831V23.4537H31.2727C31.249 24.6507 31.1805 25.8336 31.0661 26.9961L28.0639 26.9956ZM42.8137 21.5989H33.1166C33.0475 17.9087 32.5809 14.4716 31.7883 11.4746C33.6548 10.5965 35.4002 9.45535 36.9834 8.06887C40.411 11.592 42.5808 16.3436 42.8136 21.5995L42.8137 21.5989ZM35.6286 6.80071C34.2862 7.95358 32.8228 8.92151 31.2613 9.68183C30.2701 6.65549 28.9308 4.19133 27.3546 2.50309C30.45 3.28978 33.2694 4.77431 35.6287 6.80071H35.6286ZM13.4407 9.68183C11.8792 8.92104 10.4158 7.95303 9.07347 6.80019C11.4327 4.77379 14.2516 3.28981 17.3481 2.50309C15.7719 4.1912 14.4321 6.65549 13.4409 9.68183H13.4407ZM7.71794 8.06887C9.30115 9.45535 11.0462 10.597 12.9131 11.4751C12.1205 14.4721 11.6534 17.9093 11.5848 21.5995H1.8877C2.12051 16.344 4.29031 11.5919 7.71781 8.06887H7.71794ZM1.88783 23.4535H11.5849C11.654 27.1437 12.1206 30.5809 12.9133 33.5778C11.0468 34.4559 9.30128 35.5976 7.71807 36.9841C4.29057 33.4604 2.12067 28.7089 1.88796 23.4535H1.88783ZM9.07398 38.253C10.4163 37.1001 11.8797 36.1322 13.4412 35.3714C14.4324 38.3977 15.7723 40.8619 17.3485 42.5501C14.252 41.7634 11.4327 40.2789 9.07385 38.253H9.07398ZM44.1604 44.1473H28.9837V28.8511H44.1604V44.1473Z" fill="url(#paint0_radial_2_4783)"/>
<path d="M32.9135 38.3125V40.8883C32.9135 41.8578 33.6961 42.6465 34.6576 42.6465H38.4868C39.4483 42.6465 40.2309 41.8578 40.2309 40.8883V38.3125C41.148 38.2627 41.8796 37.4943 41.8796 36.5573V32.1078C41.8796 31.1383 41.0971 30.3496 40.1356 30.3496H33.0104C32.049 30.3496 31.2664 31.1383 31.2664 32.1078V36.5573C31.2659 37.4938 31.9965 38.2621 32.9137 38.3125H32.9135ZM33.106 32.2044H40.0392V36.4639C39.1221 36.5142 38.3905 37.2821 38.3905 38.2186V40.792H34.7539V38.2186C34.7539 37.2821 34.0232 36.5142 33.1062 36.4639L33.106 32.2044Z" fill="url(#paint1_radial_2_4783)"/>
<defs>
<radialGradient id="paint0_radial_2_4783" cx="0" cy="0" r="1" gradientUnits="userSpaceOnUse" gradientTransform="translate(8.07018) rotate(47.156) scale(70.0201 71.1868)">
<stop stop-color="#F18B39"/>
<stop offset="1" stop-color="#DD5D4B"/>
</radialGradient>
<radialGradient id="paint1_radial_2_4783" cx="0" cy="0" r="1" gradientUnits="userSpaceOnUse" gradientTransform="translate(30.7078 33.6434) rotate(56.917) scale(10.7451 10.3538)">
<stop stop-color="#F18B39"/>
<stop offset="1" stop-color="#DD5D4B"/>
</radialGradient>
</defs>
</svg>
