<svg width="45" height="46" viewBox="0 0 45 46" fill="none" xmlns="http://www.w3.org/2000/svg">
<path d="M23.8374 32.8393C23.8374 37.0269 27.2531 40.4339 31.4503 40.4339C35.6476 40.4339 39.0632 37.0269 39.0632 32.8393C39.0632 28.6526 35.6476 25.2456 31.4503 25.2456C27.2531 25.2456 23.8374 28.6521 23.8374 32.8393ZM37.2182 32.8393C37.2182 36.0125 34.6305 38.5941 31.4497 38.5941C28.2694 38.5941 25.6812 36.0129 25.6812 32.8393C25.6812 29.667 28.2689 27.0853 31.4497 27.0853C34.6305 27.0853 37.2182 29.6665 37.2182 32.8393Z" fill="url(#paint0_radial_2_4792)"/>
<path d="M29.5955 5.10686C29.5823 5.09224 29.5778 5.0736 29.5641 5.05949C29.55 5.04538 29.5318 5.04084 29.5172 5.02824C26.3843 1.92308 22.0729 0 17.3185 0C12.5625 0 8.25005 1.92347 5.11722 5.02966C5.10358 5.04176 5.0859 5.04579 5.07276 5.05889C5.05963 5.07199 5.05559 5.08963 5.04346 5.10324C1.92887 8.22813 0 12.5301 0 17.2746C0 21.8881 1.80161 26.2259 5.07282 29.4894C5.2456 29.6617 5.48102 29.759 5.72505 29.759C5.97007 29.759 6.20448 29.6622 6.37727 29.4894L7.97777 27.8919C8.33798 27.5326 8.33798 26.9506 7.97777 26.5908C7.61755 26.2315 7.03353 26.2315 6.67332 26.5908L5.74374 27.519C3.42687 24.9207 2.09008 21.6649 1.88599 18.1949H3.18644C3.69619 18.1949 4.10894 17.7832 4.10894 17.2747C4.10894 16.7662 3.69619 16.3545 3.18644 16.3545H1.89104C2.10322 12.7923 3.5249 9.55749 5.76042 7.04653L6.67282 7.95713C6.85318 8.13703 7.08912 8.22673 7.32505 8.22673C7.56098 8.22673 7.79691 8.13703 7.97728 7.95713C8.33749 7.59884 8.33749 7.01529 7.97728 6.65598L7.06487 5.74538C9.58182 3.51553 12.8247 2.0975 16.396 1.8858V3.17689C16.396 3.68535 16.8087 4.09706 17.3185 4.09706C17.8282 4.09706 18.241 3.68535 18.241 3.17689V1.8858C21.8117 2.09745 25.0548 3.51553 27.5717 5.74538L26.6593 6.65598C26.2991 7.01529 26.2991 7.59833 26.6593 7.95713C26.8397 8.13703 27.0756 8.22673 27.3115 8.22673C27.5475 8.22673 27.7834 8.13703 27.9638 7.95713L28.8762 7.04653C31.1117 9.55711 32.5333 12.7918 32.7455 16.354H31.4512C30.9414 16.354 30.5287 16.7657 30.5287 17.2742C30.5287 17.7826 30.9414 18.1944 31.4512 18.1944H32.7577C32.6925 19.301 32.5066 20.39 32.2085 21.4512C31.967 21.5127 31.7149 21.554 31.4512 21.554C30.5368 21.554 29.6941 21.1549 29.3536 20.5603C28.9474 19.8548 28.0997 19.5146 27.3348 19.7525C26.5775 19.9888 25.8359 20.2932 25.1336 20.657C24.3823 21.0451 24.0004 21.8851 24.2247 22.6551C24.4182 23.3182 24.1075 24.2042 23.4517 24.8593C22.796 25.5134 21.9088 25.8258 21.244 25.6303C20.4741 25.4075 19.6289 25.785 19.2389 26.5358C18.8751 27.2368 18.5695 27.975 18.3325 28.731C18.092 29.4939 18.4325 30.341 19.1424 30.7462C19.7375 31.0858 20.1376 31.9269 20.1376 32.8385C20.1376 33.7506 19.7375 34.5907 19.1414 34.9303C18.4325 35.3355 18.092 36.1826 18.3325 36.9445C18.5695 37.7009 18.8746 38.4397 19.2389 39.1406C19.6279 39.8909 20.4675 40.2729 21.243 40.0461C21.9058 39.8491 22.795 40.162 23.4517 40.8171C24.1075 41.4722 24.4182 42.3581 24.2247 43.0218C24.0004 43.7908 24.3823 44.6309 25.1336 45.0188C25.8363 45.3827 26.5775 45.6875 27.3348 45.9234C27.499 45.9748 27.6662 45.999 27.833 45.999C28.4427 45.999 29.0349 45.6699 29.3537 45.1156C29.6942 44.5209 30.5373 44.1218 31.4513 44.1218C32.3657 44.1218 33.2089 44.521 33.549 45.1156C33.9551 45.8216 34.8039 46.1642 35.5677 45.9234C36.325 45.687 37.0667 45.3827 37.7693 45.0188C38.5206 44.6308 38.9025 43.7908 38.6782 43.0208C38.4847 42.3576 38.7954 41.4717 39.4512 40.8166C40.1079 40.1615 40.9966 39.8506 41.6589 40.0456C42.4298 40.2693 43.274 39.8909 43.6641 39.14C44.0278 38.4391 44.3335 37.7009 44.5704 36.9449C44.8109 36.1819 44.4704 35.3349 43.7606 34.9297C43.1649 34.59 42.7653 33.75 42.7653 32.8379C42.7653 31.9258 43.1654 31.0852 43.7616 30.7455C44.4704 30.3404 44.8109 29.4933 44.5704 28.7314C44.3335 27.975 44.0283 27.2362 43.6641 26.5357C43.2751 25.7843 42.4334 25.4008 41.6599 25.6301C40.9951 25.8231 40.1069 25.5132 39.4512 24.8591C38.7954 24.204 38.4847 23.3182 38.6782 22.6544C38.9025 21.8854 38.5206 21.0453 37.7693 20.6574C37.0666 20.2936 36.3255 19.9887 35.5677 19.7529C35.1949 19.636 34.8023 19.6622 34.4502 19.7967C34.572 18.9652 34.6371 18.1231 34.6371 17.2745C34.6361 12.532 32.7083 8.23151 29.5957 5.10674L29.5955 5.10686ZM35.1118 21.5396C35.716 21.7346 36.3071 21.979 36.8719 22.2672C36.5556 23.5502 37.0467 25.0641 38.1455 26.1611C39.2443 27.2582 40.764 27.7485 42.0493 27.4305C42.3383 27.9929 42.5828 28.5825 42.7778 29.1877C41.6294 29.8776 40.9186 31.2695 40.9186 32.8392C40.9186 34.4089 41.6294 35.7997 42.7778 36.4897C42.5823 37.0944 42.3383 37.6845 42.0493 38.2463C40.7666 37.9284 39.2453 38.4197 38.1455 39.5167C37.0457 40.6128 36.5546 42.1275 36.8719 43.4106C36.308 43.6989 35.7165 43.9433 35.1118 44.1383C34.4181 42.9919 33.0237 42.2828 31.4501 42.2828C29.8774 42.2828 28.482 42.9918 27.7884 44.1383C27.1842 43.9433 26.5931 43.6989 26.0283 43.4106C26.3456 42.1266 25.8535 40.6128 24.7547 39.5167C23.6549 38.4207 22.1373 37.9298 20.8509 38.2473C20.5619 37.685 20.3179 37.0944 20.1224 36.4902C21.2708 35.8003 21.9816 34.4094 21.9816 32.8397C21.9816 31.2694 21.2708 29.8781 20.1224 29.1882C20.3179 28.5835 20.5619 27.9934 20.8509 27.4315C22.1326 27.7425 23.6549 27.2582 24.7547 26.1611C25.8545 25.0631 26.3456 23.5493 26.0283 22.2672C26.5921 21.979 27.1842 21.7346 27.7884 21.5396C28.4821 22.686 29.8765 23.395 31.4501 23.395C32.0644 23.395 32.6343 23.259 33.1632 23.0589C33.2557 23.0383 33.3451 23.0111 33.4265 22.9637C34.1368 22.6427 34.7339 22.1645 35.1118 21.5396L35.1118 21.5396Z" fill="url(#paint1_radial_2_4792)"/>
<path d="M17.3193 6.38795C16.8096 6.38795 16.3968 6.79966 16.3968 7.30812V13.6273C15.0145 14.029 13.9956 15.2893 13.9956 16.7956C13.9956 18.6238 15.4864 20.1109 17.3193 20.1109C19.1512 20.1109 20.642 18.6238 20.642 16.7956C20.642 15.2893 19.623 14.029 18.2413 13.6273V7.30761C18.2419 6.79965 17.8291 6.38794 17.3193 6.38794L17.3193 6.38795ZM18.7976 16.7961C18.7976 17.6095 18.1348 18.2712 17.3193 18.2712C16.5039 18.2712 15.84 17.609 15.84 16.7961C15.84 15.9828 16.5038 15.3216 17.3193 15.3216C18.1342 15.3216 18.7976 15.9827 18.7976 16.7961Z" fill="url(#paint2_radial_2_4792)"/>
<defs>
<radialGradient id="paint0_radial_2_4792" cx="0" cy="0" r="1" gradientUnits="userSpaceOnUse" gradientTransform="translate(25.0545 26.8168) rotate(43.7836) scale(18.5443 17.9836)">
<stop stop-color="#F18B39"/>
<stop offset="1" stop-color="#DD5D4B"/>
</radialGradient>
<radialGradient id="paint1_radial_2_4792" cx="0" cy="0" r="1" gradientUnits="userSpaceOnUse" gradientTransform="translate(3.56897 4.75862) rotate(44.7092) scale(55.2404 53.6157)">
<stop stop-color="#F18B39"/>
<stop offset="1" stop-color="#DD5D4B"/>
</radialGradient>
<radialGradient id="paint2_radial_2_4792" cx="0" cy="0" r="1" gradientUnits="userSpaceOnUse" gradientTransform="translate(14.5269 7.80755) rotate(63.2474) scale(12.9833 10.1309)">
<stop stop-color="#F18B39"/>
<stop offset="1" stop-color="#DD5D4B"/>
</radialGradient>
</defs>
</svg>
