<svg width="46" height="46" viewBox="0 0 46 46" fill="none" xmlns="http://www.w3.org/2000/svg">
<path d="M43.6712 0.000649383H2.32133C1.04302 0.000649383 0.00352704 1.15267 0.00352704 2.56936V33.7363C0.00352704 33.7435 0 33.7491 0 33.7558C0 33.763 0.00352704 33.7686 0.00352704 33.7752V38.807C0.00352704 40.2176 1.043 41.3647 2.32133 41.3647H16.2186C15.885 42.2726 15.2648 43.4379 14.1986 43.9695H11.5836C11.0752 43.9695 10.6636 44.4238 10.6636 44.9848C10.6636 45.5458 11.0752 46 11.5836 46H34.412C34.9204 46 35.3321 45.5458 35.3321 44.9848C35.3321 44.4238 34.9204 43.9695 34.412 43.9695H31.7974C30.7257 43.4352 30.1065 42.2715 29.7749 41.3647H43.6721C44.956 41.3647 46 40.2176 46 38.807V2.56871C46 1.15204 44.956 0 43.6721 0L43.6712 0.000649383ZM2.32133 2.03119H43.6712C43.9353 2.03119 44.159 2.27806 44.159 2.56939V32.7414H28.2779V17.6739C28.2779 17.645 28.2613 17.6205 28.2592 17.5916C28.2527 17.5043 28.229 17.4215 28.2013 17.3364C28.1867 17.2914 28.1907 17.2402 28.1701 17.1974L23.8122 8.14581C23.6529 7.81388 23.3406 7.60649 22.9999 7.60649C22.6593 7.60649 22.3479 7.81387 22.1877 8.14468L17.8238 17.1963C17.8026 17.2397 17.8066 17.2914 17.792 17.3375C17.7648 17.422 17.7411 17.5038 17.7346 17.591C17.7326 17.6194 17.7159 17.6444 17.7159 17.6733V32.7409L1.84259 32.7414V2.56936C1.84259 2.27302 2.05724 2.03117 2.32075 2.03117L2.32133 2.03119ZM19.5555 32.7413V19.3274C20.3466 19.6943 21.1613 19.9323 21.9857 20.0385V32.7413L19.5555 32.7413ZM19.8765 17.261L22.9989 10.7842L26.1173 17.261C24.115 18.3368 21.8789 18.3379 19.8765 17.261ZM23.8252 20.0537C24.711 19.9603 25.5877 19.7223 26.4377 19.3281V32.742H23.8252V20.0537ZM28.9938 43.9716H17.0004C17.6242 43.0464 17.9855 42.0501 18.1779 41.3667H27.8164C28.0088 42.05 28.3701 43.0464 28.9939 43.9716H28.9938ZM43.6714 39.3363H2.32149C2.05847 39.3363 1.84333 39.0995 1.84333 38.8087V34.7722H44.1594V38.8087C44.1594 39.0995 43.9402 39.3363 43.6716 39.3363H43.6714Z" fill="url(#paint0_radial_2_4796)"/>
<defs>
<radialGradient id="paint0_radial_2_4796" cx="0" cy="0" r="1" gradientUnits="userSpaceOnUse" gradientTransform="translate(-1.79685 1.18966) rotate(61.041) scale(51.2138 53.8267)">
<stop stop-color="#F18B39"/>
<stop offset="1" stop-color="#DD5D4B"/>
</radialGradient>
</defs>
</svg>
