<svg width="51" height="46" viewBox="0 0 51 46" fill="none" xmlns="http://www.w3.org/2000/svg">
<path d="M49.4005 32.2974C48.6696 31.7387 47.7448 31.5532 46.8533 31.7919L36.0267 34.7007C36.0943 34.415 36.1392 34.1209 36.1392 33.8147C36.1392 31.689 34.4105 29.9607 32.2847 29.9607H26.7086C24.7052 29.9607 24.105 29.1855 23.2749 28.1123C22.2699 26.8138 21.0201 25.1997 17.3644 25.1997C13.6622 25.1997 11.2385 25.9927 9.82532 26.6826C9.52575 25.8221 8.71565 25.1997 7.75499 25.1997H2.20046C0.987238 25.1997 0 26.187 0 27.4013V43.7995C0 45.0127 0.987294 46 2.20046 46H7.75499C8.90509 46 9.84148 45.1096 9.93731 43.9838L25.6409 45.4916C26.2639 45.552 26.8868 45.5814 27.5098 45.5814C30.5021 45.5814 33.4607 44.8931 36.1591 43.5596L48.9143 37.2559C49.922 36.7581 50.5483 35.7504 50.5483 34.6257C50.5494 33.7065 50.1308 32.8576 49.4009 32.2978L49.4005 32.2974ZM7.93431 43.799C7.93431 43.8976 7.85458 43.9779 7.75546 43.9779H2.20094C2.10237 43.9779 2.02208 43.8981 2.02208 43.799V27.4008C2.02208 27.3022 2.10237 27.2214 2.20094 27.2214H7.75546C7.85402 27.2214 7.93431 27.3022 7.93431 27.4008V43.799ZM48.0184 35.4427L35.2633 41.7464C32.3428 43.1916 29.082 43.7902 25.8348 43.4791L9.95687 41.9546V28.9225C10.7415 28.4076 13.0185 27.2215 17.3653 27.2215C20.0298 27.2215 20.7563 28.1606 21.6766 29.3489C22.5847 30.5217 23.7155 31.9819 26.7095 31.9819H32.2856C33.2956 31.9819 34.1179 32.8042 34.1179 33.8142C34.1179 34.6714 33.5232 35.388 32.7269 35.5867L32.6361 35.6111C32.5226 35.6332 32.4057 35.6465 32.2861 35.6465H24.019C23.4603 35.6465 23.0079 36.0989 23.0079 36.6576C23.0079 37.2163 23.4603 37.6687 24.019 37.6687H32.2861C32.5658 37.6687 32.8371 37.6355 33.0996 37.5785C33.1034 37.5774 33.1068 37.5785 33.1106 37.5779L47.3783 33.7444C47.6596 33.6697 47.9442 33.7295 48.1701 33.9012C48.3971 34.0761 48.5273 34.3397 48.5273 34.6249C48.5273 34.9699 48.3273 35.291 48.0184 35.4427L48.0184 35.4427Z" fill="url(#paint0_radial_2_4805)"/>
<path d="M48.1488 0H21.0212C19.6972 0 18.6201 1.07701 18.6201 2.40105V10.3199C18.6201 10.8388 18.7896 11.3166 19.0709 11.7098C18.7896 12.1029 18.6201 12.5808 18.6201 13.0996V21.0196C18.6201 22.3436 19.6971 23.4207 21.0212 23.4207H48.1488C49.4728 23.4207 50.5498 22.3437 50.5498 21.0196V13.0996C50.5498 12.5808 50.3804 12.1029 50.0991 11.7098C50.3804 11.3166 50.5498 10.8388 50.5498 10.3199V2.40105C50.5498 1.07708 49.4728 0 48.1488 0V0ZM20.6413 2.40105C20.6413 2.19173 20.8113 2.02174 21.0206 2.02174H48.1482C48.3575 2.02174 48.5275 2.19173 48.5275 2.40105V10.3199C48.5275 10.5292 48.3575 10.6992 48.1482 10.6992H21.0206C20.8113 10.6992 20.6413 10.5292 20.6413 10.3199V2.40105ZM48.5273 21.0191C48.5273 21.2285 48.3573 21.3985 48.148 21.3985H21.0203C20.811 21.3985 20.641 21.2285 20.641 21.0191V13.0992C20.641 12.8898 20.811 12.7198 21.0203 12.7198H48.148C48.3573 12.7198 48.5273 12.8898 48.5273 13.0992V21.0191Z" fill="url(#paint1_radial_2_4805)"/>
<path d="M23.7997 8.21459C24.3584 8.21459 24.8108 7.76219 24.8108 7.20348V5.51844C24.8108 4.95972 24.3584 4.50732 23.7997 4.50732C23.241 4.50732 22.7886 4.95972 22.7886 5.51844L22.7891 7.20348C22.7891 7.76219 23.241 8.21459 23.7997 8.21459V8.21459Z" fill="url(#paint2_radial_2_4805)"/>
<path d="M27.9291 8.21459C28.4878 8.21459 28.9402 7.76219 28.9402 7.20348V5.51844C28.9402 4.95972 28.4878 4.50732 27.9291 4.50732C27.3704 4.50732 26.918 4.95972 26.918 5.51844V7.20348C26.918 7.76219 27.3698 8.21459 27.9291 8.21459Z" fill="url(#paint3_radial_2_4805)"/>
<path d="M35.0053 7.37256H45.3678C45.9265 7.37256 46.3789 6.92016 46.3789 6.36145C46.3789 5.80274 45.9265 5.35034 45.3678 5.35034H35.0053C34.4465 5.35034 33.9941 5.80274 33.9941 6.36145C33.9947 6.92016 34.4465 7.37256 35.0053 7.37256Z" fill="url(#paint4_radial_2_4805)"/>
<path d="M23.7997 15.2075C23.241 15.2075 22.7886 15.6599 22.7886 16.2186V17.9031C22.7886 18.4618 23.241 18.9142 23.7997 18.9142C24.3584 18.9142 24.8108 18.4618 24.8108 17.9031V16.2186C24.8108 15.6599 24.3584 15.2075 23.7997 15.2075Z" fill="url(#paint5_radial_2_4805)"/>
<path d="M27.9291 15.2075C27.3704 15.2075 26.918 15.6599 26.918 16.2186V17.9031C26.918 18.4618 27.3704 18.9142 27.9291 18.9142C28.4878 18.9142 28.9402 18.4618 28.9402 17.9031V16.2186C28.9396 15.6599 28.4878 15.2075 27.9291 15.2075Z" fill="url(#paint6_radial_2_4805)"/>
<path d="M45.3673 16.0496H35.0048C34.4461 16.0496 33.9937 16.502 33.9937 17.0607C33.9937 17.6194 34.4461 18.0718 35.0048 18.0718H45.3673C45.926 18.0718 46.3784 17.6194 46.3784 17.0607C46.3784 16.502 45.926 16.0496 45.3673 16.0496Z" fill="url(#paint7_radial_2_4805)"/>
<defs>
<radialGradient id="paint0_radial_2_4805" cx="0" cy="0" r="1" gradientUnits="userSpaceOnUse" gradientTransform="translate(5.55155 28.4273) rotate(20.9623) scale(61.1487 45.5162)">
<stop stop-color="#F18B39"/>
<stop offset="1" stop-color="#DD5D4B"/>
</radialGradient>
<radialGradient id="paint1_radial_2_4805" cx="0" cy="0" r="1" gradientUnits="userSpaceOnUse" gradientTransform="translate(22.1269 3.63424) rotate(34.3295) scale(43.6776 45.3225)">
<stop stop-color="#F18B39"/>
<stop offset="1" stop-color="#DD5D4B"/>
</radialGradient>
<radialGradient id="paint2_radial_2_4805" cx="0" cy="0" r="1" gradientUnits="userSpaceOnUse" gradientTransform="translate(23.0107 5.08259) rotate(59.6344) scale(4.51894 4.3916)">
<stop stop-color="#F18B39"/>
<stop offset="1" stop-color="#DD5D4B"/>
</radialGradient>
<radialGradient id="paint3_radial_2_4805" cx="0" cy="0" r="1" gradientUnits="userSpaceOnUse" gradientTransform="translate(27.1401 5.08259) rotate(59.6343) scale(4.51894 4.39161)">
<stop stop-color="#F18B39"/>
<stop offset="1" stop-color="#DD5D4B"/>
</radialGradient>
<radialGradient id="paint4_radial_2_4805" cx="0" cy="0" r="1" gradientUnits="userSpaceOnUse" gradientTransform="translate(35.3543 5.66413) rotate(8.64388) scale(14.1512 4.68492)">
<stop stop-color="#F18B39"/>
<stop offset="1" stop-color="#DD5D4B"/>
</radialGradient>
<radialGradient id="paint5_radial_2_4805" cx="0" cy="0" r="1" gradientUnits="userSpaceOnUse" gradientTransform="translate(23.0107 15.7827) rotate(59.6306) scale(4.51842 4.39143)">
<stop stop-color="#F18B39"/>
<stop offset="1" stop-color="#DD5D4B"/>
</radialGradient>
<radialGradient id="paint6_radial_2_4805" cx="0" cy="0" r="1" gradientUnits="userSpaceOnUse" gradientTransform="translate(27.1401 15.7827) rotate(59.6305) scale(4.51843 4.39144)">
<stop stop-color="#F18B39"/>
<stop offset="1" stop-color="#DD5D4B"/>
</radialGradient>
<radialGradient id="paint7_radial_2_4805" cx="0" cy="0" r="1" gradientUnits="userSpaceOnUse" gradientTransform="translate(35.3538 16.3634) rotate(8.64389) scale(14.1512 4.68493)">
<stop stop-color="#F18B39"/>
<stop offset="1" stop-color="#DD5D4B"/>
</radialGradient>
</defs>
</svg>
