<svg width="51" height="46" viewBox="0 0 51 46" fill="none" xmlns="http://www.w3.org/2000/svg">
<path d="M14.5327 4.17871H5.07612C4.51563 4.17871 4.06079 4.5904 4.06079 5.09884C4.06079 5.60728 4.51507 6.01897 5.07612 6.01897H14.5327C15.0932 6.01897 15.5481 5.60728 15.5481 5.09884C15.5481 4.5904 15.0932 4.17871 14.5327 4.17871Z" fill="url(#paint0_radial_2_4815)"/>
<path d="M14.5327 8.29907H5.07612C4.51563 8.29907 4.06079 8.71076 4.06079 9.2192C4.06079 9.72764 4.51507 10.1393 5.07612 10.1393H14.5327C15.0932 10.1393 15.5481 9.72764 15.5481 9.2192C15.5481 8.71076 15.0932 8.29907 14.5327 8.29907Z" fill="url(#paint1_radial_2_4815)"/>
<path d="M7.87093 12.841C7.87093 12.3326 7.41665 11.9209 6.8556 11.9209H5.07685C4.51636 11.9209 4.06152 12.3326 4.06152 12.841C4.06152 13.3495 4.51581 13.7612 5.07685 13.7612H6.8556C7.41609 13.7612 7.87093 13.35 7.87093 12.841Z" fill="url(#paint2_radial_2_4815)"/>
<path d="M9.80383 22.5005C7.84486 22.5005 6.25073 23.9452 6.25073 25.7205C6.25073 27.4958 7.84486 28.9404 9.80383 28.9404C11.7628 28.9404 13.3569 27.4958 13.3569 25.7205C13.3569 23.9452 11.7628 22.5005 9.80383 22.5005ZM9.80383 27.1006C8.96422 27.1006 8.28087 26.4818 8.28087 25.721C8.28087 24.9601 8.96425 24.3408 9.80383 24.3408C10.6434 24.3408 11.3268 24.9596 11.3268 25.721C11.3268 26.4819 10.6434 27.1006 9.80383 27.1006Z" fill="url(#paint3_radial_2_4815)"/>
<path d="M49.7433 40.6328H48.3215C48.3699 40.4519 48.4022 40.2655 48.4022 40.0715V28.3138C48.4022 26.9905 47.2133 25.9132 45.7527 25.9132H36.5886L36.5891 13.7999C36.5891 13.2914 36.1343 12.8797 35.5738 12.8797H19.6083V1.8785C19.6083 0.842473 18.6786 0 17.5359 0H2.07284C0.929632 0 0 0.842525 0 1.8785V31.2415C0 32.2775 0.929689 33.12 2.07284 33.12H17.5345C18.6771 33.12 19.6069 32.2774 19.6069 31.2415L19.6074 14.7204H34.558V25.9138H25.3939C23.9332 25.9138 22.7445 26.9911 22.7445 28.3143V40.072C22.7445 40.266 22.7767 40.4525 22.8251 40.6334H21.4027C20.8422 40.6334 20.3874 41.0451 20.3874 41.5535C20.3874 44.0055 22.5888 46 25.2945 46H45.8521C48.5578 46 50.7586 44.0055 50.7586 41.5535C50.7586 41.0451 50.3043 40.6334 49.7433 40.6334L49.7433 40.6328ZM17.5774 31.241C17.5774 31.2627 17.5585 31.2798 17.5352 31.2798L2.02941 31.241L2.07223 1.84062L17.5765 1.87942L17.5774 31.241ZM24.7747 40.0714V28.3137C24.7747 28.0048 25.0522 27.7529 25.3936 27.7529H45.7519C46.0933 27.7529 46.3708 28.0043 46.3708 28.3137V40.0714C46.3708 40.3813 46.0933 40.6328 45.7519 40.6328H25.3936C25.0522 40.6328 24.7742 40.3813 24.7742 40.0714H24.7747ZM45.8519 44.1592H25.2943C24.0654 44.1592 23.0139 43.4577 22.6025 42.4731H48.5422C48.1313 43.4578 47.0803 44.1592 45.8516 44.1592H45.8519Z" fill="url(#paint4_radial_2_4815)"/>
<defs>
<radialGradient id="paint0_radial_2_4815" cx="0" cy="0" r="1" gradientUnits="userSpaceOnUse" gradientTransform="translate(2.97148 3.90902) rotate(7.32422) scale(17.173 4.44858)">
<stop stop-color="#F18B39"/>
<stop offset="1" stop-color="#DD5D4B"/>
</radialGradient>
<radialGradient id="paint1_radial_2_4815" cx="0" cy="0" r="1" gradientUnits="userSpaceOnUse" gradientTransform="translate(2.97148 8.02938) rotate(7.32423) scale(17.173 4.44858)">
<stop stop-color="#F18B39"/>
<stop offset="1" stop-color="#DD5D4B"/>
</radialGradient>
<radialGradient id="paint2_radial_2_4815" cx="0" cy="0" r="1" gradientUnits="userSpaceOnUse" gradientTransform="translate(3.70029 11.6512) rotate(21.1858) scale(6.05786 4.18203)">
<stop stop-color="#F18B39"/>
<stop offset="1" stop-color="#DD5D4B"/>
</radialGradient>
<radialGradient id="paint3_radial_2_4815" cx="0" cy="0" r="1" gradientUnits="userSpaceOnUse" gradientTransform="translate(5.57687 21.5567) rotate(36.0209) scale(13.0276 12.6947)">
<stop stop-color="#F18B39"/>
<stop offset="1" stop-color="#DD5D4B"/>
</radialGradient>
<radialGradient id="paint4_radial_2_4815" cx="0" cy="0" r="1" gradientUnits="userSpaceOnUse" gradientTransform="translate(-4.81332 -6.74138) rotate(36.0212) scale(93.0549 90.6773)">
<stop stop-color="#F18B39"/>
<stop offset="1" stop-color="#DD5D4B"/>
</radialGradient>
</defs>
</svg>
