<svg width="54" height="56" viewBox="0 0 54 56" fill="none" xmlns="http://www.w3.org/2000/svg">
<path d="M17.3145 53.7598H5.09748C4.50121 53.7598 4.01733 54.261 4.01733 54.8799C4.01733 55.4989 4.50062 56.0001 5.09748 56.0001H17.3145C17.9108 56.0001 18.3947 55.4989 18.3947 54.8799C18.3941 54.261 17.9108 53.7598 17.3145 53.7598Z" fill="url(#paint0_radial_2_5476)"/>
<path d="M52.9196 34.6493H32.6699C32.0736 34.6493 31.5897 35.1504 31.5897 35.7694V42.2155C30.4877 42.2216 29.2769 42.2278 28.0795 42.2321L28.0801 27.2996H41.6434C46.1013 27.2996 49.7274 23.5392 49.7274 18.9162C49.7274 14.4637 46.3621 10.8114 42.1309 10.5488C41.5949 4.63949 36.7839 0 30.9478 0C27.153 0 23.6352 1.98815 21.5666 5.24442C20.8698 5.05548 20.16 4.96039 19.446 4.96039C15.3951 4.96039 11.9299 7.9866 11.152 12.0205C7.31584 12.2855 4.27233 15.6067 4.27233 19.6512C4.27233 23.8686 7.58085 27.2996 11.6476 27.2996H25.9202V42.2389C24.4916 42.242 23.2317 42.242 22.41 42.2364V35.7694C22.41 35.1505 21.9267 34.6493 21.3298 34.6493H1.08015C0.483877 34.6493 0 35.1505 0 35.7694V50.889C0 51.5079 0.483287 52.0091 1.08015 52.0091H21.3298C21.9261 52.0091 22.41 51.5079 22.41 50.889V44.4631C23.0157 44.4791 23.8356 44.4858 24.9803 44.4858C26.5272 44.4858 28.6572 44.4736 31.59 44.4552V50.8884C31.59 51.5074 32.0733 52.0085 32.6702 52.0085H52.9199C53.5161 52.0085 54 51.5074 54 50.8884L53.9994 35.7695C53.9994 35.1505 53.5161 34.6493 52.9193 34.6493L52.9196 34.6493ZM6.43252 19.6511C6.43252 16.6686 8.77201 14.2429 11.6476 14.2429C11.7428 14.2429 11.8363 14.2503 12.0208 14.2637C12.6059 14.2779 13.1217 13.8435 13.1672 13.2313C13.4169 9.84942 16.1752 7.20059 19.4458 7.20059C20.1971 7.20059 20.9454 7.34414 21.6701 7.62693C22.1752 7.82691 22.7384 7.6073 22.9969 7.1196C24.5947 4.10942 27.6417 2.24031 30.9478 2.24031C35.9504 2.24031 40.0207 6.46081 40.0189 11.6825C40.0189 11.9941 40.1443 12.2916 40.365 12.5039C40.5862 12.7161 40.8826 12.8265 41.1813 12.7989C41.3339 12.7867 41.4871 12.7738 41.6433 12.7738C44.9097 12.7738 47.5675 15.5288 47.5675 18.9162C47.5675 22.3036 44.9097 25.0598 41.6433 25.0598L11.6489 25.0592C8.77344 25.0592 6.43333 22.6337 6.43333 19.651L6.43252 19.6511ZM20.2502 49.7686H2.15997V36.8887H20.2502V49.7686ZM51.8408 49.7686H33.7505V36.8887L51.8408 36.8893V49.7686Z" fill="url(#paint1_radial_2_5476)"/>
<path d="M48.9036 53.7598H36.6866C36.0903 53.7598 35.6064 54.261 35.6064 54.8799C35.6064 55.4989 36.0903 56.0001 36.6866 56.0001H48.9036C49.4999 56.0001 49.9838 55.4989 49.9838 54.8799C49.9832 54.261 49.4999 53.7598 48.9036 53.7598Z" fill="url(#paint2_radial_2_5476)"/>
<defs>
<radialGradient id="paint0_radial_2_5476" cx="0" cy="0" r="1" gradientUnits="userSpaceOnUse" gradientTransform="translate(5.62859 54.4743) rotate(5.85517) scale(14.5773 3.22141)">
<stop stop-color="#F18B39"/>
<stop offset="1" stop-color="#DD5D4B"/>
</radialGradient>
<radialGradient id="paint1_radial_2_5476" cx="0" cy="0" r="1" gradientUnits="userSpaceOnUse" gradientTransform="translate(6.05172 16.5891) rotate(32.3688) scale(64.4853 63.4968)">
<stop stop-color="#F18B39"/>
<stop offset="1" stop-color="#DD5D4B"/>
</radialGradient>
<radialGradient id="paint2_radial_2_5476" cx="0" cy="0" r="1" gradientUnits="userSpaceOnUse" gradientTransform="translate(37.2177 54.4743) rotate(5.85517) scale(14.5773 3.22141)">
<stop stop-color="#F18B39"/>
<stop offset="1" stop-color="#DD5D4B"/>
</radialGradient>
</defs>
</svg>
