<svg width="57" height="57" viewBox="0 0 57 57" fill="none" xmlns="http://www.w3.org/2000/svg">
<path d="M55.8609 33.4515H54.8375C55.1997 31.6365 55.3895 29.7814 55.3895 27.9129C55.3895 19.9861 52.0782 12.8371 46.7952 7.75065C46.7689 7.71541 46.7577 7.67325 46.7271 7.63989C46.6578 7.56626 46.5722 7.52284 46.4904 7.47123C41.547 2.85075 34.9534 0 27.6957 0C20.437 0 13.8421 2.85139 8.8977 7.47317C8.81778 7.52414 8.73287 7.56631 8.6648 7.6393C8.63483 7.67139 8.62422 7.71293 8.59799 7.74691C3.31314 12.833 0 19.9833 0 27.9108C0 35.8396 3.31314 42.9899 8.59799 48.0763C8.62359 48.1109 8.63421 48.1518 8.66418 48.1833C8.72787 48.2512 8.80779 48.2877 8.8821 48.3368C13.8274 52.9666 20.4285 55.8232 27.6945 55.8232C29.7007 55.8232 31.6906 55.5973 33.6324 55.1693V55.8509C33.6324 56.4852 34.1426 57 34.7726 57H55.858C56.488 57 56.9981 56.4852 56.9981 55.8509L57 34.5995C57 33.9652 56.4899 33.4504 55.8598 33.4504L55.8609 33.4515ZM40.7822 33.4515C40.9184 32.0085 41.002 30.5441 41.0301 29.0621H53.0743C53.0093 30.5447 52.817 32.0129 52.5023 33.4515H40.7822ZM28.8369 16.7981C31.7373 16.6786 34.5639 16.1153 37.2383 15.126C38.1299 18.6011 38.6725 22.5665 38.7581 26.7639H28.837L28.8369 16.7981ZM28.8369 14.4998V2.44209C31.9857 3.22559 34.7813 7.21852 36.6032 12.9176C34.1337 13.8484 31.5193 14.3795 28.8369 14.4997V14.4998ZM26.5565 2.44209V14.4998C23.8735 14.3796 21.2584 13.8485 18.7889 12.9177C20.6115 7.21864 23.4071 3.22566 26.5565 2.4422V2.44209ZM26.5565 16.798V26.7638H16.6342C16.7197 22.5655 17.2623 18.6003 18.154 15.1259C20.8289 16.1145 23.6562 16.6784 26.5565 16.798H26.5565ZM26.5565 29.0614V39.0266C23.6556 39.1455 20.8283 39.71 18.154 40.6987C17.2624 37.2243 16.7198 33.2582 16.6342 29.0608L26.5565 29.0614ZM33.6347 49.3816C32.5276 51.0379 30.8936 52.8542 28.8367 53.3721V41.3101C30.4595 41.3824 32.0648 41.6109 33.6347 41.9897V49.3816ZM26.5565 41.325V53.3828C23.4071 52.5999 20.611 48.6068 18.7889 42.9077C21.2584 41.9764 23.8735 41.4452 26.5565 41.325V41.325ZM34.7749 33.451C34.1449 33.451 33.6347 33.9652 33.6347 34.6002V39.6278C32.0612 39.281 30.4559 39.0784 28.8368 39.0117V29.0622H38.7509C38.7216 30.5455 38.6367 32.0112 38.4949 33.4516L34.7749 33.451ZM53.0517 26.7639H41.0358C40.9502 22.1913 40.372 17.9322 39.3898 14.2185C41.7026 13.1304 43.8655 11.7164 45.8273 9.99839C50.0744 14.364 52.7632 20.2519 53.0516 26.7646L53.0517 26.7639ZM44.1484 8.42697C42.4851 9.85552 40.6718 11.0549 38.7368 11.9971C37.5086 8.24702 35.849 5.1936 33.8959 3.10165C37.7316 4.07647 41.2252 5.91599 44.1486 8.42697H44.1484ZM16.6548 11.9971C14.7199 11.0543 12.9066 9.85484 11.2432 8.42633C14.1666 5.91535 17.6596 4.0765 21.4966 3.10165C19.5434 5.19344 17.8832 8.24702 16.655 11.9971H16.6548ZM9.56354 9.99839C11.5253 11.7164 13.6877 13.1311 16.001 14.2192C15.0189 17.9328 14.44 22.1919 14.3551 26.7646H2.33911C2.62758 20.2524 5.31625 14.3638 9.56338 9.99839H9.56354ZM2.33927 29.0619H14.3553C14.4408 33.6345 15.019 37.8937 16.0012 41.6073C13.6884 42.6954 11.5255 44.1101 9.5637 45.8281C5.31657 41.4618 2.62779 35.5741 2.33943 29.0619H2.33927ZM11.2438 47.4005C12.9072 45.9719 14.7205 44.7725 16.6555 43.8297C17.8837 47.5798 19.5439 50.6332 21.4971 52.7251C17.6601 51.7503 14.1666 49.9108 11.2437 47.4005H11.2438ZM54.7205 54.7043H35.9146V35.7503H54.7205V54.7043Z" fill="url(#paint0_radial_2_5481)"/>
<path d="M40.7842 47.4742V50.666C40.7842 51.8674 41.7539 52.8446 42.9454 52.8446H47.6903C48.8816 52.8446 49.8514 51.8673 49.8514 50.666V47.4742C50.9878 47.4125 51.8944 46.4604 51.8944 45.2993V39.7858C51.8944 38.5844 50.9247 37.6072 49.7333 37.6072H40.9043C39.7129 37.6072 38.7432 38.5845 38.7432 39.7858V45.2993C38.7425 46.4597 39.6479 47.4118 40.7844 47.4742H40.7842ZM41.0228 39.9055H49.6139V45.1836C48.4775 45.2459 47.5709 46.1974 47.5709 47.3579V50.5466H43.0647V47.3579C43.0647 46.1974 42.1593 45.246 41.0229 45.1836L41.0228 39.9055Z" fill="url(#paint1_radial_2_5481)"/>
<defs>
<radialGradient id="paint0_radial_2_5481" cx="0" cy="0" r="1" gradientUnits="userSpaceOnUse" gradientTransform="translate(10) rotate(47.156) scale(86.7641 88.2097)">
<stop stop-color="#F18B39"/>
<stop offset="1" stop-color="#DD5D4B"/>
</radialGradient>
<radialGradient id="paint1_radial_2_5481" cx="0" cy="0" r="1" gradientUnits="userSpaceOnUse" gradientTransform="translate(38.051 41.6886) rotate(56.917) scale(13.3145 12.8297)">
<stop stop-color="#F18B39"/>
<stop offset="1" stop-color="#DD5D4B"/>
</radialGradient>
</defs>
</svg>
