<svg width="54" height="56" viewBox="0 0 54 56" fill="none" xmlns="http://www.w3.org/2000/svg">
<path d="M28.8313 39.9781C28.8313 45.0761 32.9625 49.2238 38.039 49.2238C43.1155 49.2238 47.2467 45.0761 47.2467 39.9781C47.2467 34.8813 43.1155 30.7336 38.039 30.7336C32.9625 30.7336 28.8313 34.8807 28.8313 39.9781ZM45.0152 39.9781C45.0152 43.8412 41.8854 46.9839 38.0382 46.9839C34.1917 46.9839 31.0613 43.8417 31.0613 39.9781C31.0613 36.1162 34.1911 32.9733 38.0382 32.9733C41.8854 32.9733 45.0152 36.1156 45.0152 39.9781Z" fill="url(#paint0_radial_2_5484)"/>
<path d="M35.7953 6.21704C35.7794 6.19925 35.7739 6.17655 35.7574 6.15937C35.7403 6.1422 35.7183 6.13668 35.7006 6.12134C31.9115 2.34114 26.6969 0 20.9465 0C15.1942 0 9.97832 2.34162 6.18921 6.12307C6.17271 6.13779 6.15133 6.1427 6.13544 6.15865C6.11955 6.1746 6.11467 6.19607 6.1 6.21263C2.33294 10.0169 0 15.254 0 21.03C0 26.6464 2.17902 31.9272 6.13551 35.9001C6.34448 36.1099 6.62922 36.2283 6.92437 36.2283C7.22072 36.2283 7.50424 36.1105 7.71322 35.9001L9.649 33.9554C10.0847 33.518 10.0847 32.8094 9.649 32.3714C9.21332 31.9339 8.50696 31.9339 8.07128 32.3714L6.94697 33.5014C4.14475 30.3382 2.52793 26.3746 2.28109 22.1503H3.85395C4.47049 22.1503 4.96971 21.6491 4.96971 21.0301C4.96971 20.4111 4.47049 19.9099 3.85395 19.9099H2.28719C2.54382 15.5732 4.26332 11.6352 6.96715 8.57839L8.07069 9.68694C8.28883 9.90595 8.57419 10.0151 8.85955 10.0151C9.1449 10.0151 9.43025 9.90595 9.64841 9.68694C10.0841 9.25077 10.0841 8.54035 9.64841 8.10294L8.54487 6.99438C11.5891 4.27977 15.5113 2.55348 19.8307 2.29576V3.86752C19.8307 4.48651 20.3299 4.98772 20.9465 4.98772C21.563 4.98772 22.0622 4.48651 22.0622 3.86752V2.29576C26.381 2.55342 30.3034 4.27977 33.3476 6.99438L32.2441 8.10294C31.8084 8.54035 31.8084 9.25014 32.2441 9.68694C32.4622 9.90595 32.7476 10.0151 33.0329 10.0151C33.3183 10.0151 33.6036 9.90595 33.8218 9.68694L34.9253 8.57839C37.6292 11.6347 39.3486 15.5726 39.6053 19.9092H38.0398C37.4232 19.9092 36.924 20.4104 36.924 21.0294C36.924 21.6484 37.4232 22.1496 38.0398 22.1496H39.62C39.5412 23.4968 39.3163 24.8226 38.9558 26.1145C38.6637 26.1894 38.3588 26.2397 38.0398 26.2397C36.9338 26.2397 35.9146 25.7538 35.5027 25.0299C35.0115 24.171 33.9862 23.7569 33.0611 24.0465C32.1451 24.3342 31.2481 24.7048 30.3987 25.1477C29.4901 25.6201 29.0282 26.6427 29.2995 27.5801C29.5335 28.3874 29.1577 29.466 28.3646 30.2634C27.5714 31.0597 26.4984 31.4401 25.6944 31.2021C24.7631 30.9309 23.7409 31.3904 23.2691 32.3045C22.8292 33.1578 22.4595 34.0565 22.1729 34.9768C21.8821 35.9057 22.2939 36.9368 23.1524 37.4301C23.8722 37.8436 24.3562 38.8675 24.3562 39.9773C24.3562 41.0877 23.8722 42.1104 23.1512 42.5239C22.2939 43.0171 21.8821 44.0484 22.1729 44.9759C22.4595 45.8967 22.8286 46.7961 23.2691 47.6494C23.7396 48.5628 24.7552 49.0279 25.6931 48.7518C26.4948 48.5119 27.5702 48.8929 28.3646 49.6904C29.1577 50.4879 29.5335 51.5664 29.2995 52.3744C29.0282 53.3106 29.4901 54.3333 30.3987 54.8055C31.2487 55.2485 32.1451 55.6196 33.0611 55.9067C33.2597 55.9693 33.4619 55.9987 33.6636 55.9987C34.4011 55.9987 35.1173 55.5981 35.5028 54.9233C35.9147 54.1994 36.9345 53.7135 38.0399 53.7135C39.1459 53.7135 40.1658 54.1994 40.577 54.9233C41.0683 55.7828 42.0948 56.2 43.0187 55.9067C43.9346 55.619 44.8316 55.2485 45.6815 54.8055C46.5901 54.3331 47.0521 53.3105 46.7808 52.3731C46.5467 51.5658 46.9225 50.4873 47.7157 49.6898C48.51 48.8923 49.5848 48.5137 50.3859 48.7512C51.3183 49.0235 52.3393 48.5628 52.8111 47.6487C53.251 46.7954 53.6207 45.8967 53.9073 44.9764C54.1981 44.0476 53.7863 43.0164 52.9278 42.5231C52.2074 42.1096 51.724 41.087 51.724 39.9765C51.724 38.8661 52.208 37.8428 52.929 37.4293C53.7863 36.9361 54.1981 35.9049 53.9073 34.9773C53.6207 34.0565 53.2516 33.1571 52.8111 32.3043C52.3406 31.3896 51.3226 30.9228 50.3871 31.2019C49.583 31.4369 48.5087 31.0596 47.7157 30.2633C46.9225 29.4658 46.5467 28.3873 46.7808 27.5793C47.0521 26.6431 46.5901 25.6204 45.6815 25.1482C44.8315 24.7052 43.9352 24.3341 43.0187 24.047C42.5677 23.9046 42.0929 23.9366 41.667 24.1003C41.8143 23.0881 41.8931 22.0629 41.8931 21.0299C41.8919 15.2564 39.5602 10.021 35.7956 6.2169L35.7953 6.21704ZM42.4672 26.2221C43.198 26.4595 43.9129 26.757 44.596 27.1079C44.2135 28.6698 44.8074 30.5128 46.1365 31.8483C47.4655 33.1839 49.3035 33.7808 50.858 33.3937C51.2075 34.0783 51.5033 34.7961 51.7391 35.5329C50.3502 36.3727 49.4905 38.0672 49.4905 39.9782C49.4905 41.8891 50.3502 43.5823 51.7391 44.4222C51.5027 45.1584 51.2075 45.8768 50.858 46.5608C49.3066 46.1737 47.4667 46.7718 46.1365 48.1073C44.8062 49.4416 44.2122 51.2857 44.596 52.8477C43.9141 53.1986 43.1986 53.4962 42.4672 53.7336C41.6282 52.3379 39.9417 51.4747 38.0385 51.4747C36.1363 51.4747 34.4486 52.3379 33.6097 53.7336C32.8789 53.4962 32.164 53.1986 31.4809 52.8477C31.8646 51.2846 31.2695 49.4416 29.9405 48.1073C28.6102 46.773 26.7747 46.1755 25.2189 46.562C24.8694 45.8773 24.5743 45.1584 24.3378 44.4228C25.7267 43.583 26.5864 41.8898 26.5864 39.9788C26.5864 38.0672 25.7267 36.3734 24.3378 35.5335C24.5743 34.7973 24.8694 34.0789 25.2189 33.3949C26.7691 33.7734 28.6102 33.1839 29.9405 31.8483C31.2707 30.5116 31.8647 28.6687 31.4809 27.1079C32.1628 26.757 32.879 26.4595 33.6097 26.2221C34.4487 27.6177 36.1352 28.4809 38.0385 28.4809C38.7815 28.4809 39.4707 28.3153 40.1105 28.0717C40.2223 28.0466 40.3305 28.0135 40.4288 27.9558C41.288 27.565 42.0102 26.9828 42.4672 26.2221L42.4672 26.2221Z" fill="url(#paint1_radial_2_5484)"/>
<path d="M20.9472 7.77663C20.3307 7.77663 19.8315 8.27784 19.8315 8.89683V16.5898C18.1596 17.0787 16.9272 18.6131 16.9272 20.4468C16.9272 22.6725 18.7304 24.4828 20.9472 24.4828C23.1629 24.4828 24.966 22.6725 24.966 20.4468C24.966 18.6131 23.7335 17.0788 22.0624 16.5898V8.89621C22.063 8.27782 21.5638 7.77661 20.9473 7.77661L20.9472 7.77663ZM22.7352 20.4474C22.7352 21.4376 21.9335 22.2431 20.9472 22.2431C19.961 22.2431 19.158 21.437 19.158 20.4474C19.158 19.4573 19.9609 18.6523 20.9472 18.6523C21.9328 18.6523 22.7352 19.4572 22.7352 20.4474Z" fill="url(#paint2_radial_2_5484)"/>
<defs>
<radialGradient id="paint0_radial_2_5484" cx="0" cy="0" r="1" gradientUnits="userSpaceOnUse" gradientTransform="translate(30.3034 32.6464) rotate(43.9701) scale(22.4994 21.8247)">
<stop stop-color="#F18B39"/>
<stop offset="1" stop-color="#DD5D4B"/>
</radialGradient>
<radialGradient id="paint1_radial_2_5484" cx="0" cy="0" r="1" gradientUnits="userSpaceOnUse" gradientTransform="translate(4.31661 5.7931) rotate(44.8958) scale(67.029 65.0604)">
<stop stop-color="#F18B39"/>
<stop offset="1" stop-color="#DD5D4B"/>
</radialGradient>
<radialGradient id="paint2_radial_2_5484" cx="0" cy="0" r="1" gradientUnits="userSpaceOnUse" gradientTransform="translate(17.5698 9.50484) rotate(63.3972) scale(15.785 12.2693)">
<stop stop-color="#F18B39"/>
<stop offset="1" stop-color="#DD5D4B"/>
</radialGradient>
</defs>
</svg>
