<svg width="50" height="50" viewBox="0 0 50 50" fill="none" xmlns="http://www.w3.org/2000/svg">
<path d="M47.4687 0.000705851H2.52318C1.13372 0.000705851 0.00383373 1.25291 0.00383373 2.79278V36.6699C0.00383373 36.6778 0 36.6838 0 36.6911C0 36.6989 0.00383373 36.705 0.00383373 36.7122V42.1816C0.00383373 43.7148 1.13369 44.9616 2.52318 44.9616H17.6289C17.2663 45.9485 16.5921 47.2151 15.4333 47.7929H12.5909C12.0383 47.7929 11.5908 48.2867 11.5908 48.8965C11.5908 49.5063 12.0383 50 12.5909 50H37.4044C37.957 50 38.4044 49.5063 38.4044 48.8965C38.4044 48.2867 37.957 47.7929 37.4044 47.7929H34.5624C33.3975 47.2122 32.7245 45.9472 32.364 44.9616H47.4697C48.8652 44.9616 50 43.7148 50 42.1816V2.79207C50 1.25222 48.8652 0 47.4697 0L47.4687 0.000705851ZM2.52318 2.20782H47.4687C47.7557 2.20782 47.9989 2.47615 47.9989 2.79281V35.5885H30.7368V19.2108C30.7368 19.1793 30.7188 19.1528 30.7166 19.1213C30.7094 19.0265 30.6837 18.9364 30.6536 18.8439C30.6377 18.795 30.6421 18.7394 30.6196 18.6929L25.8828 8.85414C25.7097 8.49335 25.3702 8.26792 24.9999 8.26792C24.6297 8.26792 24.2912 8.49334 24.1171 8.85292L19.3737 18.6916C19.3507 18.7388 19.355 18.795 19.3392 18.8451C19.3096 18.937 19.2838 19.0258 19.2767 19.1207C19.2745 19.1515 19.2565 19.1787 19.2565 19.2101V35.5879L2.00281 35.5885V2.79278C2.00281 2.47068 2.23613 2.20779 2.52255 2.20779L2.52318 2.20782ZM21.256 35.5883V21.008C22.1158 21.4069 23.0014 21.6655 23.8975 21.781V35.5883L21.256 35.5883ZM21.6049 18.7619L24.9988 11.7219L28.3884 18.7619C26.212 19.9313 23.7814 19.9325 21.6049 18.7619ZM25.897 21.7975C26.8598 21.696 27.8127 21.4373 28.7367 21.0088V35.5891H25.897V21.7975ZM31.515 47.7952H18.4787C19.1567 46.7896 19.5494 45.7066 19.7586 44.9638H30.2352C30.4444 45.7066 30.8371 46.7896 31.5151 47.7952H31.515ZM47.4689 42.7569H2.52336C2.23747 42.7569 2.00362 42.4994 2.00362 42.1834V37.7959H47.9993V42.1834C47.9993 42.4994 47.7611 42.7569 47.4692 42.7569H47.4689Z" fill="url(#paint0_radial_2_5489)"/>
<defs>
<radialGradient id="paint0_radial_2_5489" cx="0" cy="0" r="1" gradientUnits="userSpaceOnUse" gradientTransform="translate(-1.9531 1.2931) rotate(61.041) scale(55.6671 58.5073)">
<stop stop-color="#F18B39"/>
<stop offset="1" stop-color="#DD5D4B"/>
</radialGradient>
</defs>
</svg>
