<svg width="50" height="46" viewBox="0 0 50 46" fill="none" xmlns="http://www.w3.org/2000/svg">
<path d="M14.3154 4.17871H5.00015C4.44804 4.17871 4 4.5904 4 5.09884C4 5.60728 4.44749 6.01897 5.00015 6.01897H14.3154C14.8675 6.01897 15.3156 5.60728 15.3156 5.09884C15.3156 4.5904 14.8675 4.17871 14.3154 4.17871Z" fill="url(#paint0_radial_2_5492)"/>
<path d="M14.3154 8.29907H5.00015C4.44804 8.29907 4 8.71076 4 9.2192C4 9.72764 4.44749 10.1393 5.00015 10.1393H14.3154C14.8675 10.1393 15.3156 9.72764 15.3156 9.2192C15.3156 8.71076 14.8675 8.29907 14.3154 8.29907Z" fill="url(#paint1_radial_2_5492)"/>
<path d="M7.7532 12.841C7.7532 12.3326 7.30571 11.9209 6.75305 11.9209H5.00088C4.44877 11.9209 4.00073 12.3326 4.00073 12.841C4.00073 13.3495 4.44823 13.7612 5.00088 13.7612H6.75305C7.30516 13.7612 7.7532 13.35 7.7532 12.841Z" fill="url(#paint2_radial_2_5492)"/>
<path d="M9.65746 22.5005C7.72778 22.5005 6.15747 23.9452 6.15747 25.7205C6.15747 27.4958 7.72778 28.9404 9.65746 28.9404C11.5872 28.9404 13.1575 27.4958 13.1575 25.7205C13.1575 23.9452 11.5872 22.5005 9.65746 22.5005ZM9.65746 27.1006C8.8304 27.1006 8.15727 26.4818 8.15727 25.721C8.15727 24.9601 8.83043 24.3408 9.65746 24.3408C10.4845 24.3408 11.1577 24.9596 11.1577 25.721C11.1577 26.4819 10.4845 27.1006 9.65746 27.1006Z" fill="url(#paint3_radial_2_5492)"/>
<path d="M48.9999 40.6328H47.5993C47.647 40.4519 47.6788 40.2655 47.6788 40.0715V28.3138C47.6788 26.9905 46.5077 25.9132 45.0689 25.9132H36.0418L36.0423 13.7999C36.0423 13.2914 35.5943 12.8797 35.0421 12.8797H19.3152V1.8785C19.3152 0.842473 18.3994 0 17.2738 0H2.04186C0.915739 0 0 0.842525 0 1.8785V31.2415C0 32.2775 0.915795 33.12 2.04186 33.12H17.2724C18.398 33.12 19.3138 32.2774 19.3138 31.2415L19.3144 14.7204H34.0415V25.9138H25.0144C23.5755 25.9138 22.4045 26.9911 22.4045 28.3143V40.072C22.4045 40.266 22.4363 40.4525 22.4839 40.6334H21.0828C20.5307 40.6334 20.0827 41.0451 20.0827 41.5535C20.0827 44.0055 22.2512 46 24.9165 46H45.1668C47.8321 46 50 44.0055 50 41.5535C50 41.0451 49.5525 40.6334 48.9998 40.6334L48.9999 40.6328ZM17.3147 31.241C17.3147 31.2627 17.2961 31.2798 17.2731 31.2798L1.99908 31.241L2.04126 1.84062L17.3139 1.87942L17.3147 31.241ZM24.4044 40.0714V28.3137C24.4044 28.0048 24.6778 27.7529 25.0141 27.7529H45.0681C45.4044 27.7529 45.6777 28.0043 45.6777 28.3137V40.0714C45.6777 40.3813 45.4044 40.6328 45.0681 40.6328H25.0141C24.6778 40.6328 24.4039 40.3813 24.4039 40.0714H24.4044ZM45.1666 44.1592H24.9162C23.7058 44.1592 22.6699 43.4577 22.2647 42.4731H47.8167C47.412 43.4578 46.3767 44.1592 45.1663 44.1592H45.1666Z" fill="url(#paint4_radial_2_5492)"/>
<defs>
<radialGradient id="paint0_radial_2_5492" cx="0" cy="0" r="1" gradientUnits="userSpaceOnUse" gradientTransform="translate(2.92697 3.90902) rotate(7.43411) scale(16.9205 4.44747)">
<stop stop-color="#F18B39"/>
<stop offset="1" stop-color="#DD5D4B"/>
</radialGradient>
<radialGradient id="paint1_radial_2_5492" cx="0" cy="0" r="1" gradientUnits="userSpaceOnUse" gradientTransform="translate(2.92697 8.02938) rotate(7.43412) scale(16.9205 4.44748)">
<stop stop-color="#F18B39"/>
<stop offset="1" stop-color="#DD5D4B"/>
</radialGradient>
<radialGradient id="paint2_radial_2_5492" cx="0" cy="0" r="1" gradientUnits="userSpaceOnUse" gradientTransform="translate(3.64489 11.6512) rotate(21.4782) scale(5.97922 4.17371)">
<stop stop-color="#F18B39"/>
<stop offset="1" stop-color="#DD5D4B"/>
</radialGradient>
<radialGradient id="paint3_radial_2_5492" cx="0" cy="0" r="1" gradientUnits="userSpaceOnUse" gradientTransform="translate(5.49368 21.5567) rotate(36.4323) scale(12.9006 12.6281)">
<stop stop-color="#F18B39"/>
<stop offset="1" stop-color="#DD5D4B"/>
</radialGradient>
<radialGradient id="paint4_radial_2_5492" cx="0" cy="0" r="1" gradientUnits="userSpaceOnUse" gradientTransform="translate(-4.74138 -6.74138) rotate(36.4325) scale(92.1475 90.2017)">
<stop stop-color="#F18B39"/>
<stop offset="1" stop-color="#DD5D4B"/>
</radialGradient>
</defs>
</svg>
