<svg width="188" height="165" viewBox="0 0 188 165" fill="none" xmlns="http://www.w3.org/2000/svg">
<path d="M239.586 81.6656L245.146 60.4038C245.638 58.5244 245.366 56.524 244.39 54.8449C243.414 53.1657 241.813 51.9435 239.941 51.448L56.4147 2.86845C54.5429 2.37298 52.5513 2.64423 50.8803 3.62275C49.2093 4.60126 47.9939 6.20789 47.5023 8.08727L41.9414 29.3491L239.586 81.6656Z" fill="white"/>
<path d="M38.0913 43.6367L2.85462 178.504C2.36283 180.386 2.63498 182.39 3.6114 184.071C4.58783 185.753 6.18955 186.977 8.0623 187.474L191.681 236.129C193.553 236.625 195.546 236.353 197.218 235.373C198.89 234.393 200.106 232.784 200.598 230.902L235.834 96.0345L38.0913 43.6367ZM167.853 153.918C167.361 155.8 166.145 157.409 164.473 158.389C162.801 159.369 160.809 159.641 158.936 159.145L74.1891 136.689C71.6653 136.02 69.6874 134.049 69.0001 131.519C68.3127 128.988 69.0198 126.282 70.8546 124.42C72.6895 122.559 75.3745 121.823 77.8982 122.492L97.3904 127.657L127.661 121.334C130.178 120.891 132.743 121.805 134.423 123.741C136.103 125.678 136.656 128.356 135.88 130.802C135.104 133.249 133.112 135.108 130.626 135.705L128.939 136.093L155.564 143.149L157.438 135.979C158.1 133.442 160.059 131.456 162.575 130.767C165.091 130.078 167.783 130.792 169.637 132.638C171.491 134.485 172.225 137.185 171.562 139.722L167.853 153.918Z" fill="white"/>
</svg>
