<svg width="167" height="168" viewBox="0 0 167 168" fill="none" xmlns="http://www.w3.org/2000/svg">
<path d="M182.381 136.254C186.414 126.215 189.77 115.919 192.428 105.432C213.275 122.627 225.985 140.893 226.128 155.481L182.381 136.254ZM171.718 131.568L126.425 111.662L142.698 74.6364C156.539 81.0369 169.751 88.7197 182.163 97.5826C179.577 109.165 176.075 120.527 171.691 131.556L171.718 131.568ZM147.411 63.9119L169.695 13.2077C184.471 24.2709 189.497 51.845 184.523 84.8151L184.522 84.8167C172.744 76.8437 160.332 69.8529 147.411 63.9118L147.411 63.9119ZM159.033 8.52156L136.748 59.2257C123.633 53.7279 110.087 49.3142 96.248 46.0326C117.161 20.0575 140.874 5.11226 159.031 8.52471L159.033 8.52156ZM132.037 69.9456L115.764 106.973L70.5001 87.0797C75.6586 76.3908 81.6567 66.1282 88.4421 56.389C103.366 59.5401 117.961 64.0784 132.039 69.9479L132.037 69.9456ZM59.8094 82.3812L16.0622 63.1545C26.9039 53.3946 48.9564 50.4068 75.7217 54.1362C69.7938 63.1863 64.4777 72.6211 59.8094 82.3812ZM54.9502 93.0466C49.8702 104.877 45.7312 117.088 42.5694 129.569C18.5682 109.755 5.38737 88.5581 9.74676 73.18L54.9502 93.0466ZM65.6455 97.7471L111.052 117.703L92.3005 160.368L92.3012 160.367C78.4599 153.966 65.2481 146.283 52.8363 137.42C55.8742 123.831 60.1649 110.55 65.6464 97.7486L65.6455 97.7471ZM87.5892 171.088L65.305 221.792C50.5293 210.729 45.5034 183.155 50.4773 150.185L50.478 150.183C62.2557 158.156 74.6685 165.147 87.5891 171.088L87.5892 171.088ZM75.9676 226.478L98.2518 175.774C111.367 181.272 124.913 185.686 138.752 188.967C117.84 214.943 94.1265 229.888 75.969 226.475L75.9676 226.478ZM102.963 165.054L121.714 122.389L167.104 142.337C161.386 155.037 154.506 167.18 146.555 178.614C131.633 175.461 117.04 170.922 102.965 165.052L102.963 165.054ZM177.799 147.038L223.016 166.911C214.636 180.522 190.105 185.156 159.279 180.863C166.335 170.093 172.533 158.786 177.813 147.044L177.799 147.038ZM232.769 135.735C223.712 118.652 210.861 103.885 195.203 92.5712C199.955 71.2706 199.281 49.1261 193.241 28.1822C208.465 41.2053 220.096 57.9313 227.017 76.7608C233.94 95.5933 235.924 115.898 232.782 135.741L232.769 135.735ZM132.072 1.299C112.557 11.0114 95.7876 25.489 83.3085 43.394C64.3873 39.5105 44.8185 40.029 26.1072 44.9084C38.5973 29.1767 54.8965 16.9072 73.446 9.27179C91.9972 1.63711 112.182 -1.10815 132.071 1.29905L132.072 1.299ZM2.2229 99.2614C11.2798 116.345 24.1308 131.111 39.7884 142.425C35.0367 163.726 35.711 185.87 41.7527 206.815C26.5308 193.791 14.9039 177.065 7.98217 158.235C1.0634 139.406 -0.919677 119.102 2.22356 99.2622L2.2229 99.2614ZM102.936 233.705L102.936 233.702C122.451 223.99 139.22 209.512 151.699 191.607C170.62 195.491 190.189 194.972 208.901 190.093C196.41 205.825 180.111 218.094 161.562 225.73C143.011 233.364 122.826 236.11 102.937 233.702L102.936 233.705Z" fill="white"/>
</svg>
