<svg width="205" height="201" viewBox="0 0 205 201" fill="none" xmlns="http://www.w3.org/2000/svg">
<path d="M197.355 123.975C222.3 78.7388 219.93 23.0691 215.791 6.88393C215.436 5.09049 214.226 3.70028 212.834 2.57668C211.487 1.67835 209.736 1.09403 207.71 1.49515C191.109 3.85056 138.485 22.6545 106.223 62.8174L96.5587 61.2372C79.6566 58.5273 62.8139 66.7527 54.5447 81.668L35.3845 115.974C32.583 120.721 35.6701 126.866 41.1994 127.635L69.9253 132.198C66.0288 143.219 63.6201 152.314 62.0751 158.678C60.7567 163.831 62.9913 169.212 67.5702 172.265L110.713 201.226C115.023 204.1 120.869 204.108 125.375 200.886C130.692 197.038 138.218 191.354 146.964 183.567L161.918 208.327C164.739 213.126 171.574 213.404 174.958 209.239L199.281 178.568C209.975 165.27 211.193 146.625 202.238 132.093L197.355 123.975ZM174.934 99.2965C168.071 109.507 154.123 112.269 143.662 105.488C133.426 98.662 130.675 84.7648 137.494 74.3301C144.357 64.1193 158.306 61.3578 168.766 68.1391C179.047 75.1885 181.798 89.0857 174.934 99.2965Z" fill="white"/>
<path d="M83.7005 194.694C79.9296 192.18 74.5295 193.249 72.001 197.01L51.4577 227.865C48.9292 231.626 49.9944 237.006 53.7653 239.521C57.5362 242.035 62.9363 240.966 65.4648 237.205L85.9635 206.125C88.7179 202.319 87.6973 197.164 83.7004 194.694L83.7005 194.694Z" fill="white"/>
<path d="M61.4521 189.781C63.9805 186.02 62.9154 180.639 59.1444 178.125C55.3735 175.61 49.9734 176.679 47.4449 180.441L34.4413 199.787C31.9128 203.549 32.978 208.929 36.7489 211.443C40.5198 213.958 45.9199 212.889 48.4484 209.127L61.4521 189.781Z" fill="white"/>
</svg>
