<svg width="196" height="213" viewBox="0 0 196 213" fill="none" xmlns="http://www.w3.org/2000/svg">
<path d="M287.509 132.156L299.163 97.9576C302.31 88.7219 297.226 78.9086 288.166 75.8208L82.2838 5.66097C72.9718 2.48764 63.1197 7.48924 60.0573 16.4758L48.4033 50.6741L287.509 132.156ZM226.585 75.1739L267.61 89.1545C271.385 90.4408 273.386 94.4654 272.109 98.2108C270.834 101.955 266.793 103.922 263.016 102.635L221.991 88.6546C218.216 87.3683 216.215 83.3436 217.492 79.5983C218.516 75.769 222.81 73.8876 226.585 75.1739V75.1739ZM143.116 44.7802C147.898 46.41 150.397 51.4399 148.78 56.1831C147.164 60.9262 142.114 63.3836 137.331 61.7539C132.549 60.1242 130.05 55.0942 131.666 50.351C133.197 45.8586 138.584 43.236 143.116 44.7802V44.7802ZM117.947 36.2032C122.729 37.833 125.228 42.8629 123.612 47.6061C121.995 52.3492 116.945 54.8066 112.162 53.1769C107.38 51.5472 104.881 46.5172 106.498 41.774C108.028 37.2816 113.164 34.5735 117.947 36.2032V36.2032ZM92.7778 27.6262C97.5603 29.256 100.059 34.2859 98.4426 39.0291C96.8263 43.7722 91.7759 46.2296 86.9935 44.5999C82.2112 42.9702 79.7123 37.9402 81.3287 33.197C82.8596 28.7046 87.9954 25.9965 92.7778 27.6262V27.6262Z" fill="white"/>
<path d="M43.3853 65.4023L5.61549 176.236C2.46816 185.472 7.55203 195.285 16.6128 198.373L222.243 268.447C231.555 271.621 241.407 266.619 244.469 257.632L282.239 146.798L43.3853 65.4023ZM121.487 193.155C119.786 198.147 114.397 200.769 109.364 199.054L50.7205 179.07C45.6872 177.354 43.0209 171.987 44.7221 166.995L63.0115 113.326C64.7127 108.334 70.1014 105.712 75.1348 107.427L133.778 127.411C138.812 129.126 141.478 134.493 139.777 139.485L121.487 193.155ZM209.033 233.019L145.607 211.405C141.58 210.032 139.162 205.586 140.608 201.342C141.97 197.348 146.433 194.968 150.712 196.426L214.137 218.04C218.165 219.413 220.582 223.859 219.136 228.103C217.688 232.346 213.059 234.391 209.031 233.018L209.033 233.019ZM218.731 204.561L155.305 182.947C151.278 181.575 148.86 177.128 150.306 172.885C151.752 168.641 156.131 166.511 160.409 167.969L223.835 189.583C227.862 190.955 230.28 195.402 228.834 199.645C227.386 203.888 222.756 205.933 218.729 204.561L218.731 204.561ZM228.428 176.104L165.003 154.49C160.975 153.118 158.558 148.671 160.004 144.428C161.365 140.433 165.828 138.053 170.107 139.512L233.533 161.126C237.56 162.498 239.978 166.945 238.532 171.188C237.084 175.431 232.454 177.476 228.426 176.103L228.428 176.104Z" fill="white"/>
<path d="M74.292 128.86C75.1827 126.246 78.0237 124.85 80.6375 125.74L117.986 138.468C120.6 139.359 121.997 142.2 121.106 144.813L109.955 177.535C109.065 180.149 106.224 181.546 103.61 180.655L66.261 167.928C63.6472 167.037 62.2504 164.196 63.1411 161.582L74.292 128.86Z" fill="white"/>
</svg>
