<svg width="193" height="221" viewBox="0 0 193 221" fill="none" xmlns="http://www.w3.org/2000/svg">
<path d="M207.279 124.826C205.638 124.678 203.985 124.631 202.229 124.628C190.916 97.5938 165.323 78.6283 135.982 75.9772C95.2023 72.2927 58.7242 99.9746 50.8463 139.653C26.9429 139.199 6.32193 157.351 4.13898 181.511C1.8588 206.748 20.57 229.179 45.8095 231.46L196.419 245.068C229.557 248.062 258.926 223.513 261.92 190.373C264.914 157.236 240.421 127.821 207.283 124.827L207.279 124.826Z" fill="white"/>
<path d="M100.904 59.516C96.344 57.9142 91.4533 58.2485 87.1212 60.3923C82.7938 62.4827 79.5654 66.1737 78.0139 70.7382C77.0977 73.4484 78.5389 76.3716 81.1984 77.2832C81.5995 77.4214 82.0049 77.5118 82.4151 77.5489C84.7246 77.7576 86.97 76.3572 87.748 74.0481C88.4401 72.0938 89.8264 70.5138 91.6659 69.5923C93.5034 68.7244 95.6375 68.5546 97.541 69.245C100.251 70.1612 103.174 68.7201 104.091 66.0099C105.008 63.3509 103.564 60.4274 100.904 59.5158L100.904 59.516Z" fill="white"/>
<path d="M32.4871 60.6293C32.8882 60.7676 33.2936 60.858 33.6532 60.8905C35.9627 61.0992 38.2035 59.7494 39.0321 57.4448C49.5294 26.5373 83.2511 9.93183 114.204 20.484C116.864 21.3956 119.787 19.9545 120.749 17.2995C121.666 14.5893 120.224 11.6662 117.514 10.7499C81.2425 -1.62867 41.6279 17.8048 29.2455 54.127C28.3336 56.7895 29.7775 59.7128 32.4877 60.629L32.4871 60.6293Z" fill="white"/>
<path d="M112.397 41.628C113.309 38.9685 111.918 36.0526 109.208 35.1336C86.3314 27.3277 61.4355 39.559 53.6297 62.4349C52.7181 65.0945 54.1547 68.0683 56.8648 68.9845C57.2659 69.1227 57.6255 69.1552 58.0357 69.1922C60.3424 69.4006 62.586 68.0511 63.3641 65.742C69.3377 48.2834 88.3891 38.8867 105.899 44.8646C108.555 45.7788 111.478 44.3377 112.397 41.6278L112.397 41.628Z" fill="white"/>
</svg>
