<svg width="282" height="313" viewBox="0 0 282 313" fill="none" xmlns="http://www.w3.org/2000/svg">
<path d="M344.329 117.063L352.332 86.4688C353.04 83.7645 352.648 80.8861 351.244 78.47C349.84 76.0538 347.536 74.2953 344.842 73.5824L80.7443 3.68824C78.0507 2.97538 75.1849 3.36578 72.7801 4.77386C70.3754 6.18194 68.6263 8.49381 67.9189 11.1981L59.9157 41.7925L344.329 117.063Z" fill="white"/>
<path d="M54.3809 62.3466L3.66908 256.403C2.96131 259.111 3.35285 261.994 4.75786 264.413C6.16287 266.833 8.4677 268.594 11.1626 269.308L275.389 339.308C278.084 340.022 280.951 339.631 283.357 338.22C285.763 336.81 287.513 334.495 288.22 331.787L338.932 137.731L54.3809 62.3466ZM241.104 221.019C240.396 223.728 238.646 226.043 236.24 227.453C233.834 228.863 230.967 229.254 228.272 228.54L106.322 196.233C102.69 195.271 99.8439 192.435 98.8549 188.795C97.8659 185.154 98.8835 181.26 101.524 178.581C104.164 175.902 108.028 174.844 111.66 175.806L139.709 183.237L183.269 174.138C186.892 173.501 190.581 174.815 193 177.6C195.417 180.388 196.212 184.241 195.096 187.76C193.979 191.282 191.112 193.957 187.536 194.816L185.107 195.374L223.421 205.524L226.117 195.208C227.071 191.558 229.889 188.7 233.51 187.709C237.131 186.718 241.005 187.745 243.672 190.401C246.34 193.058 247.396 196.943 246.442 200.593L241.104 221.019Z" fill="white"/>
</svg>
