<svg width="328" height="303" viewBox="0 0 328 303" fill="none" xmlns="http://www.w3.org/2000/svg">
<path d="M415.129 190.382L431.914 141.12C436.447 127.816 429.123 113.679 416.072 109.231L119.519 8.15546C106.106 3.5838 91.9153 10.7882 87.5046 23.7333L70.7199 72.9958L415.129 190.382ZM327.372 108.296L386.465 128.437C391.902 130.29 394.784 136.088 392.946 141.483C391.109 146.876 385.288 149.71 379.849 147.856L320.755 127.715C315.318 125.862 312.436 120.064 314.274 114.669C315.75 109.153 321.935 106.443 327.372 108.296ZM207.142 64.5099C214.031 66.8578 217.63 74.1036 215.302 80.9361C212.974 87.7686 205.7 91.3082 198.811 88.9604C191.923 86.6125 188.323 79.3667 190.651 72.5342C192.856 66.0629 200.615 62.2853 207.142 64.5099ZM170.889 52.1535C177.778 54.5014 181.377 61.7472 179.049 68.5797C176.721 75.4122 169.447 78.9518 162.558 76.604C155.67 74.2561 152.07 67.0102 154.398 60.1777C156.603 53.7065 164 49.8056 170.889 52.1535ZM134.635 39.797C141.524 42.145 145.124 49.3907 142.796 56.2232C140.468 63.0557 133.193 66.5954 126.305 64.2475C119.416 61.8997 115.817 54.6538 118.144 47.8213C120.349 41.3501 127.747 37.4492 134.635 39.797Z" fill="white"/>
<path d="M63.4863 94.2179L9.08778 253.877C4.55479 267.182 11.8781 281.319 24.9294 285.767L321.123 386.721C334.536 391.293 348.727 384.088 353.137 371.143L407.536 211.484L63.4863 94.2179ZM175.991 278.255C173.54 285.446 165.779 289.223 158.529 286.752L74.0573 257.961C66.8072 255.49 62.9665 247.758 65.4167 240.567L91.7583 163.254C94.2085 156.063 101.97 152.286 109.22 154.757L193.692 183.549C200.942 186.02 204.782 193.751 202.332 200.942L175.991 278.255ZM302.094 335.684L210.734 304.546C204.933 302.568 201.45 296.163 203.533 290.05C205.494 284.296 211.923 280.868 218.086 282.969L309.445 314.108C315.246 316.085 318.729 322.49 316.646 328.603C314.561 334.715 307.892 337.661 302.091 335.684L302.094 335.684ZM316.061 294.691L224.701 263.552C218.9 261.575 215.417 255.169 217.5 249.056C219.583 242.943 225.89 239.874 232.053 241.975L323.412 273.114C329.213 275.091 332.696 281.497 330.613 287.61C328.528 293.721 321.859 296.667 316.058 294.69L316.061 294.691ZM330.028 253.697L238.668 222.558C232.867 220.581 229.385 214.176 231.467 208.063C233.428 202.308 239.857 198.881 246.02 200.981L337.379 232.12C343.181 234.098 346.663 240.503 344.58 246.616C342.495 252.728 335.827 255.674 330.025 253.696L330.028 253.697Z" fill="white"/>
<path d="M108.719 183.549C109.609 180.935 112.45 179.539 115.064 180.43L173.031 200.187C175.645 201.078 177.042 203.919 176.151 206.533L158.67 257.84C157.779 260.454 154.939 261.851 152.325 260.96L94.3576 241.202C91.7438 240.311 90.3469 237.47 91.2375 234.856L108.719 183.549Z" fill="white"/>
</svg>
