<svg width="224" height="269" viewBox="0 0 224 269" fill="none" xmlns="http://www.w3.org/2000/svg">
<path d="M231.422 172.824C236.546 160.071 240.809 146.991 244.186 133.669C270.669 155.514 286.814 178.717 286.996 197.249L231.422 172.824ZM217.876 166.871L160.338 141.584L181.01 94.5479C198.593 102.679 215.377 112.439 231.145 123.698C227.86 138.412 223.411 152.846 217.842 166.857L217.876 166.871ZM186.998 80.9239L215.307 16.5114C234.077 30.5656 240.462 65.5946 234.143 107.478L234.142 107.481C219.18 97.3519 203.412 88.4711 186.998 80.9238L186.998 80.9239ZM201.761 10.5583L173.452 74.9708C156.791 67.9866 139.583 62.3797 122.002 58.2108C148.569 25.213 178.693 6.22729 201.759 10.5623L201.761 10.5583ZM167.467 88.5889L146.794 135.627L89.2933 110.355C95.8464 96.7766 103.466 83.7394 112.086 71.3671C131.045 75.3702 149.586 81.1354 167.469 88.5917L167.467 88.5889ZM75.7122 104.387L20.1376 79.9618C33.9105 67.5632 61.9251 63.7677 95.9266 68.5053C88.396 80.0021 81.6426 91.9877 75.7122 104.387ZM69.5393 117.935C63.0858 132.964 57.8278 148.477 53.8112 164.332C23.3211 139.161 6.57673 112.233 12.1147 92.6977L69.5393 117.935ZM83.1262 123.907L140.808 149.258L116.988 203.458L116.988 203.456C99.405 195.325 82.6213 185.565 66.8539 174.306C70.713 157.043 76.1638 140.171 83.1273 123.909L83.1262 123.907ZM111.002 217.076L82.6936 281.489C63.9232 267.434 57.5384 232.405 63.8571 190.522L63.858 190.519C78.8199 200.648 94.5885 209.529 111.002 217.076L111.002 217.076ZM96.2389 287.442L124.548 223.029C141.209 230.013 158.417 235.62 175.998 239.789C149.431 272.787 119.307 291.773 96.2407 287.438L96.2389 287.442ZM130.533 209.411L154.354 155.211L212.014 180.552C204.751 196.685 196.011 212.112 185.91 226.636C166.954 222.632 148.416 216.865 130.536 209.408L130.533 209.411ZM225.601 186.523L283.043 211.769C272.398 229.06 241.235 234.948 202.074 229.493C211.038 215.812 218.912 201.448 225.619 186.531L225.601 186.523ZM295.433 172.165C283.927 150.463 267.602 131.704 247.711 117.331C253.748 90.2721 252.891 62.1407 245.218 35.5344C264.558 52.0784 279.334 73.3264 288.126 97.2467C296.921 121.171 299.441 146.965 295.45 172.173L295.433 172.165ZM167.512 1.38309C142.72 13.7213 121.417 32.1131 105.565 54.8588C81.5278 49.9253 56.6684 50.5841 32.8984 56.7826C48.7652 36.7978 69.471 21.2111 93.0356 11.5114C116.602 1.81261 142.244 -1.67485 167.511 1.38315L167.512 1.38309ZM2.55673 125.83C14.0622 147.532 30.3876 166.291 50.2784 180.664C44.242 207.723 45.0985 235.855 52.7738 262.462C33.4365 245.917 18.6661 224.668 9.87305 200.748C1.08374 176.829 -1.43548 151.035 2.55755 125.831L2.55673 125.83ZM130.499 296.622L130.498 296.619C155.289 284.28 176.592 265.889 192.445 243.143C216.482 248.076 241.341 247.418 265.111 241.219C249.244 261.204 228.539 276.791 204.974 286.49C181.407 296.189 155.766 299.677 130.499 296.619L130.499 296.622Z" fill="white"/>
</svg>
